<mxfile host="app.diagrams.net" agent="Mozilla/5.0 (Windows NT 10.0; Win64; x64) AppleWebKit/537.36 (KHTML, like Gecko) Chrome/133.0.0.0 Safari/537.36" version="26.0.16">
  <diagram name="Page-1" id="kR_7lPQhMmrS7MMskV_w">
    <mxGraphModel dx="4430" dy="4628" grid="1" gridSize="10" guides="1" tooltips="1" connect="1" arrows="1" fold="1" page="1" pageScale="1" pageWidth="850" pageHeight="1100" math="0" shadow="0">
      <root>
        <mxCell id="0" />
        <mxCell id="1" parent="0" />
        <mxCell id="TG-YVFUVCGgv4PHO8d8e-1" value="" style="rounded=0;whiteSpace=wrap;html=1;fillColor=#2e7956;" vertex="1" parent="1">
          <mxGeometry x="114.37" y="130" width="1240" height="260" as="geometry" />
        </mxCell>
        <mxCell id="TG-YVFUVCGgv4PHO8d8e-2" value="" style="rounded=0;whiteSpace=wrap;html=1;fillColor=#e5dc7b;" vertex="1" parent="1">
          <mxGeometry x="244.37" y="370" width="10" height="20" as="geometry" />
        </mxCell>
        <mxCell id="TG-YVFUVCGgv4PHO8d8e-3" value="" style="rounded=0;whiteSpace=wrap;html=1;fillColor=#e5dc7b;" vertex="1" parent="1">
          <mxGeometry x="254.37" y="370" width="10" height="20" as="geometry" />
        </mxCell>
        <mxCell id="TG-YVFUVCGgv4PHO8d8e-4" value="" style="rounded=0;whiteSpace=wrap;html=1;fillColor=#e5dc7b;" vertex="1" parent="1">
          <mxGeometry x="264.37" y="370" width="10" height="20" as="geometry" />
        </mxCell>
        <mxCell id="TG-YVFUVCGgv4PHO8d8e-5" value="" style="rounded=0;whiteSpace=wrap;html=1;fillColor=#e5dc7b;" vertex="1" parent="1">
          <mxGeometry x="274.37" y="370" width="10" height="20" as="geometry" />
        </mxCell>
        <mxCell id="TG-YVFUVCGgv4PHO8d8e-6" value="" style="rounded=0;whiteSpace=wrap;html=1;fillColor=#e5dc7b;" vertex="1" parent="1">
          <mxGeometry x="284.37" y="370" width="10" height="20" as="geometry" />
        </mxCell>
        <mxCell id="TG-YVFUVCGgv4PHO8d8e-7" value="" style="rounded=0;whiteSpace=wrap;html=1;fillColor=#e5dc7b;" vertex="1" parent="1">
          <mxGeometry x="294.37" y="370" width="10" height="20" as="geometry" />
        </mxCell>
        <mxCell id="TG-YVFUVCGgv4PHO8d8e-8" value="" style="rounded=0;whiteSpace=wrap;html=1;fillColor=#e5dc7b;" vertex="1" parent="1">
          <mxGeometry x="304.37" y="370" width="10" height="20" as="geometry" />
        </mxCell>
        <mxCell id="TG-YVFUVCGgv4PHO8d8e-9" value="" style="rounded=0;whiteSpace=wrap;html=1;fillColor=#e5dc7b;" vertex="1" parent="1">
          <mxGeometry x="314.37" y="370" width="10" height="20" as="geometry" />
        </mxCell>
        <mxCell id="TG-YVFUVCGgv4PHO8d8e-10" value="" style="rounded=0;whiteSpace=wrap;html=1;fillColor=#e5dc7b;" vertex="1" parent="1">
          <mxGeometry x="324.37" y="370" width="10" height="20" as="geometry" />
        </mxCell>
        <mxCell id="TG-YVFUVCGgv4PHO8d8e-11" value="" style="rounded=0;whiteSpace=wrap;html=1;fillColor=#e5dc7b;" vertex="1" parent="1">
          <mxGeometry x="334.37" y="370" width="10" height="20" as="geometry" />
        </mxCell>
        <mxCell id="TG-YVFUVCGgv4PHO8d8e-12" value="" style="rounded=0;whiteSpace=wrap;html=1;fillColor=#e5dc7b;" vertex="1" parent="1">
          <mxGeometry x="344.37" y="370" width="10" height="20" as="geometry" />
        </mxCell>
        <mxCell id="TG-YVFUVCGgv4PHO8d8e-13" value="" style="rounded=0;whiteSpace=wrap;html=1;fillColor=#e5dc7b;" vertex="1" parent="1">
          <mxGeometry x="354.37" y="370" width="10" height="20" as="geometry" />
        </mxCell>
        <mxCell id="TG-YVFUVCGgv4PHO8d8e-14" value="" style="rounded=0;whiteSpace=wrap;html=1;fillColor=#e5dc7b;" vertex="1" parent="1">
          <mxGeometry x="364.37" y="370" width="10" height="20" as="geometry" />
        </mxCell>
        <mxCell id="TG-YVFUVCGgv4PHO8d8e-15" value="" style="rounded=0;whiteSpace=wrap;html=1;fillColor=#e5dc7b;" vertex="1" parent="1">
          <mxGeometry x="374.37" y="370" width="10" height="20" as="geometry" />
        </mxCell>
        <mxCell id="TG-YVFUVCGgv4PHO8d8e-16" value="" style="rounded=0;whiteSpace=wrap;html=1;fillColor=#e5dc7b;" vertex="1" parent="1">
          <mxGeometry x="384.37" y="370" width="10" height="20" as="geometry" />
        </mxCell>
        <mxCell id="TG-YVFUVCGgv4PHO8d8e-17" value="" style="rounded=0;whiteSpace=wrap;html=1;fillColor=#e5dc7b;" vertex="1" parent="1">
          <mxGeometry x="394.37" y="370" width="10" height="20" as="geometry" />
        </mxCell>
        <mxCell id="TG-YVFUVCGgv4PHO8d8e-18" value="" style="rounded=0;whiteSpace=wrap;html=1;fillColor=#e5dc7b;" vertex="1" parent="1">
          <mxGeometry x="404.37" y="370" width="10" height="20" as="geometry" />
        </mxCell>
        <mxCell id="TG-YVFUVCGgv4PHO8d8e-19" value="" style="rounded=0;whiteSpace=wrap;html=1;fillColor=#e5dc7b;" vertex="1" parent="1">
          <mxGeometry x="414.37" y="370" width="10" height="20" as="geometry" />
        </mxCell>
        <mxCell id="TG-YVFUVCGgv4PHO8d8e-20" value="" style="rounded=0;whiteSpace=wrap;html=1;fillColor=#e5dc7b;" vertex="1" parent="1">
          <mxGeometry x="424.37" y="370" width="10" height="20" as="geometry" />
        </mxCell>
        <mxCell id="TG-YVFUVCGgv4PHO8d8e-21" value="" style="rounded=0;whiteSpace=wrap;html=1;fillColor=#e5dc7b;" vertex="1" parent="1">
          <mxGeometry x="434.37" y="370" width="10" height="20" as="geometry" />
        </mxCell>
        <mxCell id="TG-YVFUVCGgv4PHO8d8e-22" value="" style="rounded=0;whiteSpace=wrap;html=1;fillColor=#e5dc7b;" vertex="1" parent="1">
          <mxGeometry x="444.37" y="370" width="10" height="20" as="geometry" />
        </mxCell>
        <mxCell id="TG-YVFUVCGgv4PHO8d8e-23" value="" style="rounded=0;whiteSpace=wrap;html=1;fillColor=#e5dc7b;" vertex="1" parent="1">
          <mxGeometry x="454.37" y="370" width="10" height="20" as="geometry" />
        </mxCell>
        <mxCell id="TG-YVFUVCGgv4PHO8d8e-24" value="" style="rounded=0;whiteSpace=wrap;html=1;fillColor=#e5dc7b;" vertex="1" parent="1">
          <mxGeometry x="464.37" y="370" width="10" height="20" as="geometry" />
        </mxCell>
        <mxCell id="TG-YVFUVCGgv4PHO8d8e-25" value="" style="rounded=0;whiteSpace=wrap;html=1;fillColor=#e5dc7b;" vertex="1" parent="1">
          <mxGeometry x="474.37" y="370" width="10" height="20" as="geometry" />
        </mxCell>
        <mxCell id="TG-YVFUVCGgv4PHO8d8e-26" value="" style="rounded=0;whiteSpace=wrap;html=1;fillColor=#e5dc7b;" vertex="1" parent="1">
          <mxGeometry x="484.37" y="370" width="10" height="20" as="geometry" />
        </mxCell>
        <mxCell id="TG-YVFUVCGgv4PHO8d8e-27" value="" style="rounded=0;whiteSpace=wrap;html=1;fillColor=#e5dc7b;" vertex="1" parent="1">
          <mxGeometry x="494.37" y="370" width="10" height="20" as="geometry" />
        </mxCell>
        <mxCell id="TG-YVFUVCGgv4PHO8d8e-28" value="" style="rounded=0;whiteSpace=wrap;html=1;fillColor=#e5dc7b;" vertex="1" parent="1">
          <mxGeometry x="504.37" y="370" width="10" height="20" as="geometry" />
        </mxCell>
        <mxCell id="TG-YVFUVCGgv4PHO8d8e-29" value="" style="rounded=0;whiteSpace=wrap;html=1;fillColor=#e5dc7b;" vertex="1" parent="1">
          <mxGeometry x="514.37" y="370" width="10" height="20" as="geometry" />
        </mxCell>
        <mxCell id="TG-YVFUVCGgv4PHO8d8e-30" value="" style="rounded=0;whiteSpace=wrap;html=1;fillColor=#e5dc7b;" vertex="1" parent="1">
          <mxGeometry x="524.37" y="370" width="10" height="20" as="geometry" />
        </mxCell>
        <mxCell id="TG-YVFUVCGgv4PHO8d8e-31" value="" style="rounded=0;whiteSpace=wrap;html=1;fillColor=#e5dc7b;" vertex="1" parent="1">
          <mxGeometry x="534.37" y="370" width="10" height="20" as="geometry" />
        </mxCell>
        <mxCell id="TG-YVFUVCGgv4PHO8d8e-32" value="" style="rounded=0;whiteSpace=wrap;html=1;fillColor=#e5dc7b;" vertex="1" parent="1">
          <mxGeometry x="544.37" y="370" width="10" height="20" as="geometry" />
        </mxCell>
        <mxCell id="TG-YVFUVCGgv4PHO8d8e-33" value="" style="rounded=0;whiteSpace=wrap;html=1;fillColor=#e5dc7b;" vertex="1" parent="1">
          <mxGeometry x="554.37" y="370" width="10" height="20" as="geometry" />
        </mxCell>
        <mxCell id="TG-YVFUVCGgv4PHO8d8e-34" value="" style="rounded=0;whiteSpace=wrap;html=1;fillColor=#e5dc7b;" vertex="1" parent="1">
          <mxGeometry x="564.37" y="370" width="10" height="20" as="geometry" />
        </mxCell>
        <mxCell id="TG-YVFUVCGgv4PHO8d8e-35" value="" style="rounded=0;whiteSpace=wrap;html=1;fillColor=#e5dc7b;" vertex="1" parent="1">
          <mxGeometry x="574.37" y="370" width="10" height="20" as="geometry" />
        </mxCell>
        <mxCell id="TG-YVFUVCGgv4PHO8d8e-36" value="" style="rounded=0;whiteSpace=wrap;html=1;fillColor=#e5dc7b;" vertex="1" parent="1">
          <mxGeometry x="584.37" y="370" width="10" height="20" as="geometry" />
        </mxCell>
        <mxCell id="TG-YVFUVCGgv4PHO8d8e-37" value="" style="rounded=0;whiteSpace=wrap;html=1;fillColor=#e5dc7b;" vertex="1" parent="1">
          <mxGeometry x="594.37" y="370" width="10" height="20" as="geometry" />
        </mxCell>
        <mxCell id="TG-YVFUVCGgv4PHO8d8e-38" value="" style="rounded=0;whiteSpace=wrap;html=1;fillColor=#e5dc7b;" vertex="1" parent="1">
          <mxGeometry x="604.37" y="370" width="10" height="20" as="geometry" />
        </mxCell>
        <mxCell id="TG-YVFUVCGgv4PHO8d8e-39" value="" style="rounded=0;whiteSpace=wrap;html=1;fillColor=#e5dc7b;" vertex="1" parent="1">
          <mxGeometry x="614.37" y="370" width="10" height="20" as="geometry" />
        </mxCell>
        <mxCell id="TG-YVFUVCGgv4PHO8d8e-40" value="" style="rounded=0;whiteSpace=wrap;html=1;fillColor=#e5dc7b;" vertex="1" parent="1">
          <mxGeometry x="844.37" y="370" width="10" height="20" as="geometry" />
        </mxCell>
        <mxCell id="TG-YVFUVCGgv4PHO8d8e-41" value="" style="rounded=0;whiteSpace=wrap;html=1;fillColor=#e5dc7b;" vertex="1" parent="1">
          <mxGeometry x="860.37" y="370" width="10" height="20" as="geometry" />
        </mxCell>
        <mxCell id="TG-YVFUVCGgv4PHO8d8e-42" value="" style="rounded=0;whiteSpace=wrap;html=1;fillColor=#e5dc7b;" vertex="1" parent="1">
          <mxGeometry x="870.37" y="370" width="10" height="20" as="geometry" />
        </mxCell>
        <mxCell id="TG-YVFUVCGgv4PHO8d8e-43" value="" style="rounded=0;whiteSpace=wrap;html=1;fillColor=#e5dc7b;" vertex="1" parent="1">
          <mxGeometry x="880.37" y="370" width="10" height="20" as="geometry" />
        </mxCell>
        <mxCell id="TG-YVFUVCGgv4PHO8d8e-44" value="" style="rounded=0;whiteSpace=wrap;html=1;fillColor=#e5dc7b;" vertex="1" parent="1">
          <mxGeometry x="890.37" y="370" width="10" height="20" as="geometry" />
        </mxCell>
        <mxCell id="TG-YVFUVCGgv4PHO8d8e-45" value="" style="rounded=0;whiteSpace=wrap;html=1;fillColor=#e5dc7b;" vertex="1" parent="1">
          <mxGeometry x="900.37" y="370" width="10" height="20" as="geometry" />
        </mxCell>
        <mxCell id="TG-YVFUVCGgv4PHO8d8e-46" value="" style="rounded=0;whiteSpace=wrap;html=1;fillColor=#e5dc7b;" vertex="1" parent="1">
          <mxGeometry x="910.37" y="370" width="10" height="20" as="geometry" />
        </mxCell>
        <mxCell id="TG-YVFUVCGgv4PHO8d8e-47" value="" style="rounded=0;whiteSpace=wrap;html=1;fillColor=#e5dc7b;" vertex="1" parent="1">
          <mxGeometry x="920.37" y="370" width="10" height="20" as="geometry" />
        </mxCell>
        <mxCell id="TG-YVFUVCGgv4PHO8d8e-48" value="" style="rounded=0;whiteSpace=wrap;html=1;fillColor=#e5dc7b;" vertex="1" parent="1">
          <mxGeometry x="930.37" y="370" width="10" height="20" as="geometry" />
        </mxCell>
        <mxCell id="TG-YVFUVCGgv4PHO8d8e-49" value="" style="rounded=0;whiteSpace=wrap;html=1;fillColor=#e5dc7b;" vertex="1" parent="1">
          <mxGeometry x="940.37" y="370" width="10" height="20" as="geometry" />
        </mxCell>
        <mxCell id="TG-YVFUVCGgv4PHO8d8e-50" value="" style="rounded=0;whiteSpace=wrap;html=1;fillColor=#e5dc7b;" vertex="1" parent="1">
          <mxGeometry x="950.37" y="370" width="10" height="20" as="geometry" />
        </mxCell>
        <mxCell id="TG-YVFUVCGgv4PHO8d8e-51" value="" style="rounded=0;whiteSpace=wrap;html=1;fillColor=#e5dc7b;" vertex="1" parent="1">
          <mxGeometry x="960.37" y="370" width="10" height="20" as="geometry" />
        </mxCell>
        <mxCell id="TG-YVFUVCGgv4PHO8d8e-52" value="" style="rounded=0;whiteSpace=wrap;html=1;fillColor=#e5dc7b;" vertex="1" parent="1">
          <mxGeometry x="970.37" y="370" width="10" height="20" as="geometry" />
        </mxCell>
        <mxCell id="TG-YVFUVCGgv4PHO8d8e-53" value="" style="rounded=0;whiteSpace=wrap;html=1;fillColor=#e5dc7b;" vertex="1" parent="1">
          <mxGeometry x="980.37" y="370" width="10" height="20" as="geometry" />
        </mxCell>
        <mxCell id="TG-YVFUVCGgv4PHO8d8e-54" value="" style="rounded=0;whiteSpace=wrap;html=1;fillColor=#e5dc7b;" vertex="1" parent="1">
          <mxGeometry x="990.37" y="370" width="10" height="20" as="geometry" />
        </mxCell>
        <mxCell id="TG-YVFUVCGgv4PHO8d8e-55" value="" style="rounded=0;whiteSpace=wrap;html=1;fillColor=#e5dc7b;" vertex="1" parent="1">
          <mxGeometry x="1000.37" y="370" width="10" height="20" as="geometry" />
        </mxCell>
        <mxCell id="TG-YVFUVCGgv4PHO8d8e-56" value="" style="rounded=0;whiteSpace=wrap;html=1;fillColor=#e5dc7b;" vertex="1" parent="1">
          <mxGeometry x="1010.37" y="370" width="10" height="20" as="geometry" />
        </mxCell>
        <mxCell id="TG-YVFUVCGgv4PHO8d8e-57" value="" style="rounded=0;whiteSpace=wrap;html=1;fillColor=#e5dc7b;" vertex="1" parent="1">
          <mxGeometry x="1020.37" y="370" width="10" height="20" as="geometry" />
        </mxCell>
        <mxCell id="TG-YVFUVCGgv4PHO8d8e-58" value="" style="rounded=0;whiteSpace=wrap;html=1;fillColor=#e5dc7b;" vertex="1" parent="1">
          <mxGeometry x="1030.37" y="370" width="10" height="20" as="geometry" />
        </mxCell>
        <mxCell id="TG-YVFUVCGgv4PHO8d8e-59" value="" style="rounded=0;whiteSpace=wrap;html=1;fillColor=#e5dc7b;" vertex="1" parent="1">
          <mxGeometry x="1040.37" y="370" width="10" height="20" as="geometry" />
        </mxCell>
        <mxCell id="TG-YVFUVCGgv4PHO8d8e-60" value="" style="rounded=0;whiteSpace=wrap;html=1;fillColor=#e5dc7b;" vertex="1" parent="1">
          <mxGeometry x="1050.3700000000001" y="370" width="10" height="20" as="geometry" />
        </mxCell>
        <mxCell id="TG-YVFUVCGgv4PHO8d8e-61" value="" style="rounded=0;whiteSpace=wrap;html=1;fillColor=#e5dc7b;" vertex="1" parent="1">
          <mxGeometry x="1060.3700000000001" y="370" width="10" height="20" as="geometry" />
        </mxCell>
        <mxCell id="TG-YVFUVCGgv4PHO8d8e-62" value="" style="rounded=0;whiteSpace=wrap;html=1;fillColor=#e5dc7b;" vertex="1" parent="1">
          <mxGeometry x="1070.3700000000001" y="370" width="10" height="20" as="geometry" />
        </mxCell>
        <mxCell id="TG-YVFUVCGgv4PHO8d8e-63" value="" style="rounded=0;whiteSpace=wrap;html=1;fillColor=#e5dc7b;" vertex="1" parent="1">
          <mxGeometry x="1080.3700000000001" y="370" width="10" height="20" as="geometry" />
        </mxCell>
        <mxCell id="TG-YVFUVCGgv4PHO8d8e-64" value="" style="rounded=0;whiteSpace=wrap;html=1;fillColor=#e5dc7b;" vertex="1" parent="1">
          <mxGeometry x="1090.3700000000001" y="370" width="10" height="20" as="geometry" />
        </mxCell>
        <mxCell id="TG-YVFUVCGgv4PHO8d8e-65" value="" style="rounded=0;whiteSpace=wrap;html=1;fillColor=#e5dc7b;" vertex="1" parent="1">
          <mxGeometry x="1100.3700000000001" y="370" width="10" height="20" as="geometry" />
        </mxCell>
        <mxCell id="TG-YVFUVCGgv4PHO8d8e-66" value="" style="rounded=0;whiteSpace=wrap;html=1;fillColor=#e5dc7b;" vertex="1" parent="1">
          <mxGeometry x="1110.3700000000001" y="370" width="10" height="20" as="geometry" />
        </mxCell>
        <mxCell id="TG-YVFUVCGgv4PHO8d8e-67" value="" style="rounded=0;whiteSpace=wrap;html=1;fillColor=#e5dc7b;" vertex="1" parent="1">
          <mxGeometry x="1120.3700000000001" y="370" width="10" height="20" as="geometry" />
        </mxCell>
        <mxCell id="TG-YVFUVCGgv4PHO8d8e-68" value="" style="rounded=0;whiteSpace=wrap;html=1;fillColor=#e5dc7b;" vertex="1" parent="1">
          <mxGeometry x="1130.3700000000001" y="370" width="10" height="20" as="geometry" />
        </mxCell>
        <mxCell id="TG-YVFUVCGgv4PHO8d8e-69" value="" style="rounded=0;whiteSpace=wrap;html=1;fillColor=#e5dc7b;" vertex="1" parent="1">
          <mxGeometry x="1140.3700000000001" y="370" width="10" height="20" as="geometry" />
        </mxCell>
        <mxCell id="TG-YVFUVCGgv4PHO8d8e-70" value="" style="rounded=0;whiteSpace=wrap;html=1;fillColor=#e5dc7b;" vertex="1" parent="1">
          <mxGeometry x="1150.3700000000001" y="370" width="10" height="20" as="geometry" />
        </mxCell>
        <mxCell id="TG-YVFUVCGgv4PHO8d8e-71" value="" style="rounded=0;whiteSpace=wrap;html=1;fillColor=#e5dc7b;" vertex="1" parent="1">
          <mxGeometry x="1160.3700000000001" y="370" width="10" height="20" as="geometry" />
        </mxCell>
        <mxCell id="TG-YVFUVCGgv4PHO8d8e-72" value="" style="rounded=0;whiteSpace=wrap;html=1;fillColor=#e5dc7b;" vertex="1" parent="1">
          <mxGeometry x="1170.3700000000001" y="370" width="10" height="20" as="geometry" />
        </mxCell>
        <mxCell id="TG-YVFUVCGgv4PHO8d8e-73" value="" style="rounded=0;whiteSpace=wrap;html=1;fillColor=#e5dc7b;" vertex="1" parent="1">
          <mxGeometry x="1180.3700000000001" y="370" width="10" height="20" as="geometry" />
        </mxCell>
        <mxCell id="TG-YVFUVCGgv4PHO8d8e-74" value="" style="rounded=0;whiteSpace=wrap;html=1;fillColor=#e5dc7b;" vertex="1" parent="1">
          <mxGeometry x="1190.3700000000001" y="370" width="10" height="20" as="geometry" />
        </mxCell>
        <mxCell id="TG-YVFUVCGgv4PHO8d8e-75" value="" style="rounded=0;whiteSpace=wrap;html=1;fillColor=#e5dc7b;" vertex="1" parent="1">
          <mxGeometry x="1200.3700000000001" y="370" width="10" height="20" as="geometry" />
        </mxCell>
        <mxCell id="TG-YVFUVCGgv4PHO8d8e-76" value="" style="rounded=0;whiteSpace=wrap;html=1;fillColor=#e5dc7b;" vertex="1" parent="1">
          <mxGeometry x="1210.3700000000001" y="370" width="10" height="20" as="geometry" />
        </mxCell>
        <mxCell id="TG-YVFUVCGgv4PHO8d8e-77" value="" style="rounded=0;whiteSpace=wrap;html=1;fillColor=#e5dc7b;" vertex="1" parent="1">
          <mxGeometry x="1220.3700000000001" y="370" width="10" height="20" as="geometry" />
        </mxCell>
        <mxCell id="TG-YVFUVCGgv4PHO8d8e-78" value="" style="rounded=0;whiteSpace=wrap;html=1;fillColor=#e5dc7b;" vertex="1" parent="1">
          <mxGeometry x="1230.3700000000001" y="370" width="10" height="20" as="geometry" />
        </mxCell>
        <mxCell id="TG-YVFUVCGgv4PHO8d8e-79" value="" style="shape=or;whiteSpace=wrap;html=1;direction=north;" vertex="1" parent="1">
          <mxGeometry x="724.37" y="360" width="20" height="30" as="geometry" />
        </mxCell>
        <mxCell id="TG-YVFUVCGgv4PHO8d8e-80" value="" style="rounded=0;whiteSpace=wrap;html=1;fillColor=#e5dc7b;" vertex="1" parent="1">
          <mxGeometry x="854.37" y="370" width="10" height="20" as="geometry" />
        </mxCell>
        <mxCell id="TG-YVFUVCGgv4PHO8d8e-81" value="" style="rounded=0;whiteSpace=wrap;html=1;fillColor=#e5dc7b;" vertex="1" parent="1">
          <mxGeometry x="864.37" y="370" width="10" height="20" as="geometry" />
        </mxCell>
        <mxCell id="TG-YVFUVCGgv4PHO8d8e-82" value="" style="rounded=0;whiteSpace=wrap;html=1;fillColor=#e5dc7b;" vertex="1" parent="1">
          <mxGeometry x="874.37" y="370" width="10" height="20" as="geometry" />
        </mxCell>
        <mxCell id="TG-YVFUVCGgv4PHO8d8e-83" value="" style="rounded=0;whiteSpace=wrap;html=1;fillColor=#e5dc7b;" vertex="1" parent="1">
          <mxGeometry x="624.37" y="370" width="10" height="20" as="geometry" />
        </mxCell>
        <mxCell id="TG-YVFUVCGgv4PHO8d8e-84" style="edgeStyle=orthogonalEdgeStyle;rounded=0;orthogonalLoop=1;jettySize=auto;html=1;exitX=0.25;exitY=1;exitDx=0;exitDy=0;entryX=1;entryY=0.5;entryDx=0;entryDy=0;strokeWidth=2;strokeColor=#6c8ebf;endArrow=none;endFill=0;fillColor=#dae8fc;" edge="1" parent="1">
          <mxGeometry relative="1" as="geometry">
            <mxPoint x="631.37" y="188.25" as="sourcePoint" />
            <mxPoint x="191.37" y="173.75" as="targetPoint" />
            <Array as="points">
              <mxPoint x="591.37" y="188.75" />
              <mxPoint x="591.37" y="173.75" />
            </Array>
          </mxGeometry>
        </mxCell>
        <mxCell id="TG-YVFUVCGgv4PHO8d8e-85" style="edgeStyle=orthogonalEdgeStyle;rounded=0;orthogonalLoop=1;jettySize=auto;html=1;exitX=0.75;exitY=1;exitDx=0;exitDy=0;strokeWidth=2;strokeColor=#6c8ebf;endArrow=none;endFill=0;fillColor=#dae8fc;" edge="1" parent="1">
          <mxGeometry relative="1" as="geometry">
            <mxPoint x="634.37" y="297.5" as="sourcePoint" />
            <mxPoint x="194.37" y="310" as="targetPoint" />
            <Array as="points">
              <mxPoint x="594.37" y="297" />
              <mxPoint x="594.37" y="310" />
            </Array>
          </mxGeometry>
        </mxCell>
        <mxCell id="TG-YVFUVCGgv4PHO8d8e-86" style="edgeStyle=orthogonalEdgeStyle;rounded=0;orthogonalLoop=1;jettySize=auto;html=1;exitX=0.25;exitY=0;exitDx=0;exitDy=0;strokeWidth=2;strokeColor=#82b366;endArrow=none;endFill=0;fillColor=#d5e8d4;" edge="1" parent="1">
          <mxGeometry relative="1" as="geometry">
            <mxPoint x="834.37" y="191.5" as="sourcePoint" />
            <mxPoint x="1275.3700000000001" y="177" as="targetPoint" />
            <Array as="points">
              <mxPoint x="874.37" y="192" />
              <mxPoint x="874.37" y="177" />
            </Array>
          </mxGeometry>
        </mxCell>
        <mxCell id="TG-YVFUVCGgv4PHO8d8e-87" value="&lt;font style=&quot;font-size: 14px;&quot; color=&quot;#ababab&quot;&gt;&lt;b&gt;RCD&lt;/b&gt;&lt;/font&gt;" style="rounded=0;whiteSpace=wrap;html=1;strokeColor=#454744;fillColor=#464646;direction=south;" vertex="1" parent="1">
          <mxGeometry x="634.37" y="180" width="200" height="130" as="geometry" />
        </mxCell>
        <mxCell id="TG-YVFUVCGgv4PHO8d8e-88" value="" style="endArrow=classic;html=1;rounded=0;strokeWidth=4;fillColor=#ffe6cc;strokeColor=#d79b00;" edge="1" parent="1">
          <mxGeometry width="50" height="50" relative="1" as="geometry">
            <mxPoint x="669.03" y="440" as="sourcePoint" />
            <mxPoint x="669.03" y="310" as="targetPoint" />
          </mxGeometry>
        </mxCell>
        <mxCell id="TG-YVFUVCGgv4PHO8d8e-89" value="" style="endArrow=classic;html=1;rounded=0;strokeWidth=4;fillColor=#dae8fc;strokeColor=#6c8ebf;" edge="1" parent="1">
          <mxGeometry width="50" height="50" relative="1" as="geometry">
            <mxPoint x="765.37" y="440" as="sourcePoint" />
            <mxPoint x="765.37" y="310" as="targetPoint" />
          </mxGeometry>
        </mxCell>
        <mxCell id="TG-YVFUVCGgv4PHO8d8e-90" value="DCK" style="text;html=1;align=center;verticalAlign=middle;whiteSpace=wrap;rounded=0;fontColor=#d79b00;fontStyle=1;fontSize=14;" vertex="1" parent="1">
          <mxGeometry x="654.37" y="440" width="35" height="20" as="geometry" />
        </mxCell>
        <mxCell id="TG-YVFUVCGgv4PHO8d8e-91" value="" style="endArrow=classic;html=1;rounded=0;exitX=1;exitY=1;exitDx=0;exitDy=0;strokeWidth=4;fillColor=#f8cecc;strokeColor=#b85450;" edge="1" parent="1">
          <mxGeometry width="50" height="50" relative="1" as="geometry">
            <mxPoint x="790.37" y="470" as="sourcePoint" />
            <mxPoint x="790.37" y="310" as="targetPoint" />
          </mxGeometry>
        </mxCell>
        <mxCell id="TG-YVFUVCGgv4PHO8d8e-92" value="" style="endArrow=classic;html=1;rounded=0;strokeWidth=4;fillColor=#d5e8d4;strokeColor=#82b366;" edge="1" parent="1">
          <mxGeometry width="50" height="50" relative="1" as="geometry">
            <mxPoint x="814.37" y="500" as="sourcePoint" />
            <mxPoint x="814.68" y="310" as="targetPoint" />
          </mxGeometry>
        </mxCell>
        <mxCell id="TG-YVFUVCGgv4PHO8d8e-93" value="" style="endArrow=classic;html=1;rounded=0;strokeWidth=4;fillColor=#e1d5e7;strokeColor=#9673a6;" edge="1" parent="1">
          <mxGeometry width="50" height="50" relative="1" as="geometry">
            <mxPoint x="834.37" y="540" as="sourcePoint" />
            <mxPoint x="834.68" y="310" as="targetPoint" />
          </mxGeometry>
        </mxCell>
        <mxCell id="TG-YVFUVCGgv4PHO8d8e-94" value="&lt;div&gt;&lt;span style=&quot;background-color: initial;&quot;&gt;DCS1_B_n&lt;/span&gt;&lt;br&gt;&lt;/div&gt;" style="text;html=1;align=center;verticalAlign=middle;whiteSpace=wrap;rounded=0;fontColor=#9673a6;fontStyle=1;fontSize=14;" vertex="1" parent="1">
          <mxGeometry x="787.37" y="540" width="90" height="20" as="geometry" />
        </mxCell>
        <mxCell id="TG-YVFUVCGgv4PHO8d8e-95" value="RCD and RDIMM shown enlarged for ease of explaining" style="text;html=1;align=center;verticalAlign=middle;whiteSpace=wrap;rounded=0;" vertex="1" parent="1">
          <mxGeometry x="1034.37" y="100" width="320" height="30" as="geometry" />
        </mxCell>
        <mxCell id="TG-YVFUVCGgv4PHO8d8e-96" value="" style="rounded=0;whiteSpace=wrap;html=1;fillColor=#e5dc7b;" vertex="1" parent="1">
          <mxGeometry x="124.37" y="370" width="10" height="20" as="geometry" />
        </mxCell>
        <mxCell id="TG-YVFUVCGgv4PHO8d8e-97" value="" style="rounded=0;whiteSpace=wrap;html=1;fillColor=#e5dc7b;" vertex="1" parent="1">
          <mxGeometry x="134.37" y="370" width="10" height="20" as="geometry" />
        </mxCell>
        <mxCell id="TG-YVFUVCGgv4PHO8d8e-98" value="" style="rounded=0;whiteSpace=wrap;html=1;fillColor=#e5dc7b;" vertex="1" parent="1">
          <mxGeometry x="144.37" y="370" width="10" height="20" as="geometry" />
        </mxCell>
        <mxCell id="TG-YVFUVCGgv4PHO8d8e-99" value="" style="rounded=0;whiteSpace=wrap;html=1;fillColor=#e5dc7b;" vertex="1" parent="1">
          <mxGeometry x="154.37" y="370" width="10" height="20" as="geometry" />
        </mxCell>
        <mxCell id="TG-YVFUVCGgv4PHO8d8e-100" value="" style="rounded=0;whiteSpace=wrap;html=1;fillColor=#e5dc7b;" vertex="1" parent="1">
          <mxGeometry x="164.37" y="370" width="10" height="20" as="geometry" />
        </mxCell>
        <mxCell id="TG-YVFUVCGgv4PHO8d8e-101" value="" style="rounded=0;whiteSpace=wrap;html=1;fillColor=#e5dc7b;" vertex="1" parent="1">
          <mxGeometry x="174.37" y="370" width="10" height="20" as="geometry" />
        </mxCell>
        <mxCell id="TG-YVFUVCGgv4PHO8d8e-102" value="" style="rounded=0;whiteSpace=wrap;html=1;fillColor=#e5dc7b;" vertex="1" parent="1">
          <mxGeometry x="184.37" y="370" width="10" height="20" as="geometry" />
        </mxCell>
        <mxCell id="TG-YVFUVCGgv4PHO8d8e-103" value="" style="rounded=0;whiteSpace=wrap;html=1;fillColor=#e5dc7b;" vertex="1" parent="1">
          <mxGeometry x="194.37" y="370" width="10" height="20" as="geometry" />
        </mxCell>
        <mxCell id="TG-YVFUVCGgv4PHO8d8e-104" value="" style="rounded=0;whiteSpace=wrap;html=1;fillColor=#e5dc7b;" vertex="1" parent="1">
          <mxGeometry x="204.37" y="370" width="10" height="20" as="geometry" />
        </mxCell>
        <mxCell id="TG-YVFUVCGgv4PHO8d8e-105" value="" style="rounded=0;whiteSpace=wrap;html=1;fillColor=#e5dc7b;" vertex="1" parent="1">
          <mxGeometry x="214.37" y="370" width="10" height="20" as="geometry" />
        </mxCell>
        <mxCell id="TG-YVFUVCGgv4PHO8d8e-106" value="" style="rounded=0;whiteSpace=wrap;html=1;fillColor=#e5dc7b;" vertex="1" parent="1">
          <mxGeometry x="224.37" y="370" width="10" height="20" as="geometry" />
        </mxCell>
        <mxCell id="TG-YVFUVCGgv4PHO8d8e-107" value="" style="rounded=0;whiteSpace=wrap;html=1;fillColor=#e5dc7b;" vertex="1" parent="1">
          <mxGeometry x="234.37" y="370" width="10" height="20" as="geometry" />
        </mxCell>
        <mxCell id="TG-YVFUVCGgv4PHO8d8e-108" value="" style="rounded=0;whiteSpace=wrap;html=1;fillColor=#e5dc7b;" vertex="1" parent="1">
          <mxGeometry x="1240.3700000000001" y="370" width="10" height="20" as="geometry" />
        </mxCell>
        <mxCell id="TG-YVFUVCGgv4PHO8d8e-109" value="" style="rounded=0;whiteSpace=wrap;html=1;fillColor=#e5dc7b;" vertex="1" parent="1">
          <mxGeometry x="1250.3700000000001" y="370" width="10" height="20" as="geometry" />
        </mxCell>
        <mxCell id="TG-YVFUVCGgv4PHO8d8e-110" value="" style="rounded=0;whiteSpace=wrap;html=1;fillColor=#e5dc7b;" vertex="1" parent="1">
          <mxGeometry x="1260.3700000000001" y="370" width="10" height="20" as="geometry" />
        </mxCell>
        <mxCell id="TG-YVFUVCGgv4PHO8d8e-111" value="" style="rounded=0;whiteSpace=wrap;html=1;fillColor=#e5dc7b;" vertex="1" parent="1">
          <mxGeometry x="1270.3700000000001" y="370" width="10" height="20" as="geometry" />
        </mxCell>
        <mxCell id="TG-YVFUVCGgv4PHO8d8e-112" value="" style="rounded=0;whiteSpace=wrap;html=1;fillColor=#e5dc7b;" vertex="1" parent="1">
          <mxGeometry x="1280.3700000000001" y="370" width="10" height="20" as="geometry" />
        </mxCell>
        <mxCell id="TG-YVFUVCGgv4PHO8d8e-113" value="" style="rounded=0;whiteSpace=wrap;html=1;fillColor=#e5dc7b;" vertex="1" parent="1">
          <mxGeometry x="1290.3700000000001" y="370" width="10" height="20" as="geometry" />
        </mxCell>
        <mxCell id="TG-YVFUVCGgv4PHO8d8e-114" value="" style="rounded=0;whiteSpace=wrap;html=1;fillColor=#e5dc7b;" vertex="1" parent="1">
          <mxGeometry x="1300.3700000000001" y="370" width="10" height="20" as="geometry" />
        </mxCell>
        <mxCell id="TG-YVFUVCGgv4PHO8d8e-115" value="" style="rounded=0;whiteSpace=wrap;html=1;fillColor=#e5dc7b;" vertex="1" parent="1">
          <mxGeometry x="1310.3700000000001" y="370" width="10" height="20" as="geometry" />
        </mxCell>
        <mxCell id="TG-YVFUVCGgv4PHO8d8e-116" value="" style="rounded=0;whiteSpace=wrap;html=1;fillColor=#e5dc7b;" vertex="1" parent="1">
          <mxGeometry x="1320.3700000000001" y="370" width="10" height="20" as="geometry" />
        </mxCell>
        <mxCell id="TG-YVFUVCGgv4PHO8d8e-117" value="" style="rounded=0;whiteSpace=wrap;html=1;fillColor=#e5dc7b;" vertex="1" parent="1">
          <mxGeometry x="1330.3700000000001" y="370" width="10" height="20" as="geometry" />
        </mxCell>
        <mxCell id="TG-YVFUVCGgv4PHO8d8e-118" value="&lt;span style=&quot;font-family: Helvetica; font-size: 14px; font-style: normal; font-variant-ligatures: normal; font-variant-caps: normal; font-weight: 700; letter-spacing: normal; orphans: 2; text-align: center; text-indent: 0px; text-transform: none; widows: 2; word-spacing: 0px; -webkit-text-stroke-width: 0px; white-space: normal; background-color: rgb(251, 251, 251); text-decoration-thickness: initial; text-decoration-style: initial; text-decoration-color: initial; float: none; display: inline !important;&quot;&gt;DCS0_A_n&lt;/span&gt;" style="text;whiteSpace=wrap;html=1;fontColor=#6c8ebf;" vertex="1" parent="1">
          <mxGeometry x="712.37" y="440" width="80" height="30" as="geometry" />
        </mxCell>
        <mxCell id="TG-YVFUVCGgv4PHO8d8e-119" value="&lt;span style=&quot;color: rgb(184, 84, 80); font-family: Helvetica; font-size: 14px; font-style: normal; font-variant-ligatures: normal; font-variant-caps: normal; font-weight: 700; letter-spacing: normal; orphans: 2; text-align: center; text-indent: 0px; text-transform: none; widows: 2; word-spacing: 0px; -webkit-text-stroke-width: 0px; white-space: normal; background-color: rgb(251, 251, 251); text-decoration-thickness: initial; text-decoration-style: initial; text-decoration-color: initial; display: inline !important; float: none;&quot;&gt;DCS1_A_n&lt;/span&gt;" style="text;whiteSpace=wrap;html=1;" vertex="1" parent="1">
          <mxGeometry x="735.37" y="470" width="80" height="20" as="geometry" />
        </mxCell>
        <mxCell id="TG-YVFUVCGgv4PHO8d8e-120" value="&lt;span style=&quot;font-family: Helvetica; font-size: 14px; font-style: normal; font-variant-ligatures: normal; font-variant-caps: normal; font-weight: 700; letter-spacing: normal; orphans: 2; text-align: center; text-indent: 0px; text-transform: none; widows: 2; word-spacing: 0px; -webkit-text-stroke-width: 0px; white-space: normal; background-color: rgb(251, 251, 251); text-decoration-thickness: initial; text-decoration-style: initial; text-decoration-color: initial; float: none; display: inline !important;&quot;&gt;DCS0_B_n&lt;/span&gt;" style="text;whiteSpace=wrap;html=1;fontColor=#82b366;" vertex="1" parent="1">
          <mxGeometry x="758.37" y="500" width="80" height="30" as="geometry" />
        </mxCell>
        <mxCell id="TG-YVFUVCGgv4PHO8d8e-121" style="edgeStyle=orthogonalEdgeStyle;rounded=0;orthogonalLoop=1;jettySize=auto;html=1;exitX=0.25;exitY=0;exitDx=0;exitDy=0;strokeWidth=2;strokeColor=#82b366;endArrow=none;endFill=0;entryX=0;entryY=0.5;entryDx=0;entryDy=0;fillColor=#d5e8d4;" edge="1" parent="1">
          <mxGeometry relative="1" as="geometry">
            <mxPoint x="834.37" y="300" as="sourcePoint" />
            <mxPoint x="1275.3700000000001" y="313" as="targetPoint" />
            <Array as="points">
              <mxPoint x="874.37" y="300" />
              <mxPoint x="874.37" y="313" />
            </Array>
          </mxGeometry>
        </mxCell>
        <mxCell id="TG-YVFUVCGgv4PHO8d8e-122" value="QACS0_A" style="text;html=1;align=center;verticalAlign=middle;whiteSpace=wrap;rounded=0;fontColor=#6c8ebf;" vertex="1" parent="1">
          <mxGeometry x="529.37" y="306" width="60" height="30" as="geometry" />
        </mxCell>
        <mxCell id="TG-YVFUVCGgv4PHO8d8e-123" value="QBCS0_A" style="text;html=1;align=center;verticalAlign=middle;whiteSpace=wrap;rounded=0;fontColor=#6c8ebf;" vertex="1" parent="1">
          <mxGeometry x="524.37" y="148" width="60" height="30" as="geometry" />
        </mxCell>
        <mxCell id="TG-YVFUVCGgv4PHO8d8e-124" value="QACS0_B" style="text;html=1;align=center;verticalAlign=middle;whiteSpace=wrap;rounded=0;fontColor=#82b366;" vertex="1" parent="1">
          <mxGeometry x="885.37" y="309" width="60" height="30" as="geometry" />
        </mxCell>
        <mxCell id="TG-YVFUVCGgv4PHO8d8e-125" value="QBCS0_B" style="text;html=1;align=center;verticalAlign=middle;whiteSpace=wrap;rounded=0;fontColor=#82b366;" vertex="1" parent="1">
          <mxGeometry x="882.37" y="151" width="60" height="30" as="geometry" />
        </mxCell>
        <mxCell id="TG-YVFUVCGgv4PHO8d8e-126" value="" style="rounded=0;whiteSpace=wrap;html=1;fillColor=#2e7956;" vertex="1" parent="1">
          <mxGeometry x="114.37" y="620" width="1240" height="260" as="geometry" />
        </mxCell>
        <mxCell id="TG-YVFUVCGgv4PHO8d8e-127" value="" style="rounded=0;whiteSpace=wrap;html=1;fillColor=#e5dc7b;" vertex="1" parent="1">
          <mxGeometry x="246.37" y="620" width="10" height="20" as="geometry" />
        </mxCell>
        <mxCell id="TG-YVFUVCGgv4PHO8d8e-128" value="" style="rounded=0;whiteSpace=wrap;html=1;fillColor=#e5dc7b;" vertex="1" parent="1">
          <mxGeometry x="256.37" y="620" width="10" height="20" as="geometry" />
        </mxCell>
        <mxCell id="TG-YVFUVCGgv4PHO8d8e-129" value="" style="rounded=0;whiteSpace=wrap;html=1;fillColor=#e5dc7b;" vertex="1" parent="1">
          <mxGeometry x="266.37" y="620" width="10" height="20" as="geometry" />
        </mxCell>
        <mxCell id="TG-YVFUVCGgv4PHO8d8e-130" value="" style="rounded=0;whiteSpace=wrap;html=1;fillColor=#e5dc7b;" vertex="1" parent="1">
          <mxGeometry x="276.37" y="620" width="10" height="20" as="geometry" />
        </mxCell>
        <mxCell id="TG-YVFUVCGgv4PHO8d8e-131" value="" style="rounded=0;whiteSpace=wrap;html=1;fillColor=#e5dc7b;" vertex="1" parent="1">
          <mxGeometry x="286.37" y="620" width="10" height="20" as="geometry" />
        </mxCell>
        <mxCell id="TG-YVFUVCGgv4PHO8d8e-132" value="" style="rounded=0;whiteSpace=wrap;html=1;fillColor=#e5dc7b;" vertex="1" parent="1">
          <mxGeometry x="296.37" y="620" width="10" height="20" as="geometry" />
        </mxCell>
        <mxCell id="TG-YVFUVCGgv4PHO8d8e-133" value="" style="rounded=0;whiteSpace=wrap;html=1;fillColor=#e5dc7b;" vertex="1" parent="1">
          <mxGeometry x="306.37" y="620" width="10" height="20" as="geometry" />
        </mxCell>
        <mxCell id="TG-YVFUVCGgv4PHO8d8e-134" value="" style="rounded=0;whiteSpace=wrap;html=1;fillColor=#e5dc7b;" vertex="1" parent="1">
          <mxGeometry x="316.37" y="620" width="10" height="20" as="geometry" />
        </mxCell>
        <mxCell id="TG-YVFUVCGgv4PHO8d8e-135" value="" style="rounded=0;whiteSpace=wrap;html=1;fillColor=#e5dc7b;" vertex="1" parent="1">
          <mxGeometry x="326.37" y="620" width="10" height="20" as="geometry" />
        </mxCell>
        <mxCell id="TG-YVFUVCGgv4PHO8d8e-136" value="" style="rounded=0;whiteSpace=wrap;html=1;fillColor=#e5dc7b;" vertex="1" parent="1">
          <mxGeometry x="336.37" y="620" width="10" height="20" as="geometry" />
        </mxCell>
        <mxCell id="TG-YVFUVCGgv4PHO8d8e-137" value="" style="rounded=0;whiteSpace=wrap;html=1;fillColor=#e5dc7b;" vertex="1" parent="1">
          <mxGeometry x="346.37" y="620" width="10" height="20" as="geometry" />
        </mxCell>
        <mxCell id="TG-YVFUVCGgv4PHO8d8e-138" value="" style="rounded=0;whiteSpace=wrap;html=1;fillColor=#e5dc7b;" vertex="1" parent="1">
          <mxGeometry x="356.37" y="620" width="10" height="20" as="geometry" />
        </mxCell>
        <mxCell id="TG-YVFUVCGgv4PHO8d8e-139" value="" style="rounded=0;whiteSpace=wrap;html=1;fillColor=#e5dc7b;" vertex="1" parent="1">
          <mxGeometry x="366.37" y="620" width="10" height="20" as="geometry" />
        </mxCell>
        <mxCell id="TG-YVFUVCGgv4PHO8d8e-140" value="" style="rounded=0;whiteSpace=wrap;html=1;fillColor=#e5dc7b;" vertex="1" parent="1">
          <mxGeometry x="376.37" y="620" width="10" height="20" as="geometry" />
        </mxCell>
        <mxCell id="TG-YVFUVCGgv4PHO8d8e-141" value="" style="rounded=0;whiteSpace=wrap;html=1;fillColor=#e5dc7b;" vertex="1" parent="1">
          <mxGeometry x="386.37" y="620" width="10" height="20" as="geometry" />
        </mxCell>
        <mxCell id="TG-YVFUVCGgv4PHO8d8e-142" value="" style="rounded=0;whiteSpace=wrap;html=1;fillColor=#e5dc7b;" vertex="1" parent="1">
          <mxGeometry x="396.37" y="620" width="10" height="20" as="geometry" />
        </mxCell>
        <mxCell id="TG-YVFUVCGgv4PHO8d8e-143" value="" style="rounded=0;whiteSpace=wrap;html=1;fillColor=#e5dc7b;" vertex="1" parent="1">
          <mxGeometry x="406.37" y="620" width="10" height="20" as="geometry" />
        </mxCell>
        <mxCell id="TG-YVFUVCGgv4PHO8d8e-144" value="" style="rounded=0;whiteSpace=wrap;html=1;fillColor=#e5dc7b;" vertex="1" parent="1">
          <mxGeometry x="416.37" y="620" width="10" height="20" as="geometry" />
        </mxCell>
        <mxCell id="TG-YVFUVCGgv4PHO8d8e-145" value="" style="rounded=0;whiteSpace=wrap;html=1;fillColor=#e5dc7b;" vertex="1" parent="1">
          <mxGeometry x="426.37" y="620" width="10" height="20" as="geometry" />
        </mxCell>
        <mxCell id="TG-YVFUVCGgv4PHO8d8e-146" value="" style="rounded=0;whiteSpace=wrap;html=1;fillColor=#e5dc7b;" vertex="1" parent="1">
          <mxGeometry x="436.37" y="620" width="10" height="20" as="geometry" />
        </mxCell>
        <mxCell id="TG-YVFUVCGgv4PHO8d8e-147" value="" style="rounded=0;whiteSpace=wrap;html=1;fillColor=#e5dc7b;" vertex="1" parent="1">
          <mxGeometry x="446.37" y="620" width="10" height="20" as="geometry" />
        </mxCell>
        <mxCell id="TG-YVFUVCGgv4PHO8d8e-148" value="" style="rounded=0;whiteSpace=wrap;html=1;fillColor=#e5dc7b;" vertex="1" parent="1">
          <mxGeometry x="456.37" y="620" width="10" height="20" as="geometry" />
        </mxCell>
        <mxCell id="TG-YVFUVCGgv4PHO8d8e-149" value="" style="rounded=0;whiteSpace=wrap;html=1;fillColor=#e5dc7b;" vertex="1" parent="1">
          <mxGeometry x="466.37" y="620" width="10" height="20" as="geometry" />
        </mxCell>
        <mxCell id="TG-YVFUVCGgv4PHO8d8e-150" value="" style="rounded=0;whiteSpace=wrap;html=1;fillColor=#e5dc7b;" vertex="1" parent="1">
          <mxGeometry x="476.37" y="620" width="10" height="20" as="geometry" />
        </mxCell>
        <mxCell id="TG-YVFUVCGgv4PHO8d8e-151" value="" style="rounded=0;whiteSpace=wrap;html=1;fillColor=#e5dc7b;" vertex="1" parent="1">
          <mxGeometry x="486.37" y="620" width="10" height="20" as="geometry" />
        </mxCell>
        <mxCell id="TG-YVFUVCGgv4PHO8d8e-152" value="" style="rounded=0;whiteSpace=wrap;html=1;fillColor=#e5dc7b;" vertex="1" parent="1">
          <mxGeometry x="496.37" y="620" width="10" height="20" as="geometry" />
        </mxCell>
        <mxCell id="TG-YVFUVCGgv4PHO8d8e-153" value="" style="rounded=0;whiteSpace=wrap;html=1;fillColor=#e5dc7b;" vertex="1" parent="1">
          <mxGeometry x="506.37" y="620" width="10" height="20" as="geometry" />
        </mxCell>
        <mxCell id="TG-YVFUVCGgv4PHO8d8e-154" value="" style="rounded=0;whiteSpace=wrap;html=1;fillColor=#e5dc7b;" vertex="1" parent="1">
          <mxGeometry x="516.37" y="620" width="10" height="20" as="geometry" />
        </mxCell>
        <mxCell id="TG-YVFUVCGgv4PHO8d8e-155" value="" style="rounded=0;whiteSpace=wrap;html=1;fillColor=#e5dc7b;" vertex="1" parent="1">
          <mxGeometry x="526.37" y="620" width="10" height="20" as="geometry" />
        </mxCell>
        <mxCell id="TG-YVFUVCGgv4PHO8d8e-156" value="" style="rounded=0;whiteSpace=wrap;html=1;fillColor=#e5dc7b;" vertex="1" parent="1">
          <mxGeometry x="536.37" y="620" width="10" height="20" as="geometry" />
        </mxCell>
        <mxCell id="TG-YVFUVCGgv4PHO8d8e-157" value="" style="rounded=0;whiteSpace=wrap;html=1;fillColor=#e5dc7b;" vertex="1" parent="1">
          <mxGeometry x="546.37" y="620" width="10" height="20" as="geometry" />
        </mxCell>
        <mxCell id="TG-YVFUVCGgv4PHO8d8e-158" value="" style="rounded=0;whiteSpace=wrap;html=1;fillColor=#e5dc7b;" vertex="1" parent="1">
          <mxGeometry x="556.37" y="620" width="10" height="20" as="geometry" />
        </mxCell>
        <mxCell id="TG-YVFUVCGgv4PHO8d8e-159" value="" style="rounded=0;whiteSpace=wrap;html=1;fillColor=#e5dc7b;" vertex="1" parent="1">
          <mxGeometry x="566.37" y="620" width="10" height="20" as="geometry" />
        </mxCell>
        <mxCell id="TG-YVFUVCGgv4PHO8d8e-160" value="" style="rounded=0;whiteSpace=wrap;html=1;fillColor=#e5dc7b;" vertex="1" parent="1">
          <mxGeometry x="576.37" y="620" width="10" height="20" as="geometry" />
        </mxCell>
        <mxCell id="TG-YVFUVCGgv4PHO8d8e-161" value="" style="rounded=0;whiteSpace=wrap;html=1;fillColor=#e5dc7b;" vertex="1" parent="1">
          <mxGeometry x="586.37" y="620" width="10" height="20" as="geometry" />
        </mxCell>
        <mxCell id="TG-YVFUVCGgv4PHO8d8e-162" value="" style="rounded=0;whiteSpace=wrap;html=1;fillColor=#e5dc7b;" vertex="1" parent="1">
          <mxGeometry x="596.37" y="620" width="10" height="20" as="geometry" />
        </mxCell>
        <mxCell id="TG-YVFUVCGgv4PHO8d8e-163" value="" style="rounded=0;whiteSpace=wrap;html=1;fillColor=#e5dc7b;" vertex="1" parent="1">
          <mxGeometry x="606.37" y="620" width="10" height="20" as="geometry" />
        </mxCell>
        <mxCell id="TG-YVFUVCGgv4PHO8d8e-164" value="" style="rounded=0;whiteSpace=wrap;html=1;fillColor=#e5dc7b;" vertex="1" parent="1">
          <mxGeometry x="616.37" y="620" width="10" height="20" as="geometry" />
        </mxCell>
        <mxCell id="TG-YVFUVCGgv4PHO8d8e-165" value="" style="rounded=0;whiteSpace=wrap;html=1;fillColor=#e5dc7b;" vertex="1" parent="1">
          <mxGeometry x="846.37" y="620" width="10" height="20" as="geometry" />
        </mxCell>
        <mxCell id="TG-YVFUVCGgv4PHO8d8e-166" value="" style="rounded=0;whiteSpace=wrap;html=1;fillColor=#e5dc7b;" vertex="1" parent="1">
          <mxGeometry x="862.37" y="620" width="10" height="20" as="geometry" />
        </mxCell>
        <mxCell id="TG-YVFUVCGgv4PHO8d8e-167" value="" style="rounded=0;whiteSpace=wrap;html=1;fillColor=#e5dc7b;" vertex="1" parent="1">
          <mxGeometry x="872.37" y="620" width="10" height="20" as="geometry" />
        </mxCell>
        <mxCell id="TG-YVFUVCGgv4PHO8d8e-168" value="" style="rounded=0;whiteSpace=wrap;html=1;fillColor=#e5dc7b;" vertex="1" parent="1">
          <mxGeometry x="882.37" y="620" width="10" height="20" as="geometry" />
        </mxCell>
        <mxCell id="TG-YVFUVCGgv4PHO8d8e-169" value="" style="rounded=0;whiteSpace=wrap;html=1;fillColor=#e5dc7b;" vertex="1" parent="1">
          <mxGeometry x="892.37" y="620" width="10" height="20" as="geometry" />
        </mxCell>
        <mxCell id="TG-YVFUVCGgv4PHO8d8e-170" value="" style="rounded=0;whiteSpace=wrap;html=1;fillColor=#e5dc7b;" vertex="1" parent="1">
          <mxGeometry x="902.37" y="620" width="10" height="20" as="geometry" />
        </mxCell>
        <mxCell id="TG-YVFUVCGgv4PHO8d8e-171" value="" style="rounded=0;whiteSpace=wrap;html=1;fillColor=#e5dc7b;" vertex="1" parent="1">
          <mxGeometry x="912.37" y="620" width="10" height="20" as="geometry" />
        </mxCell>
        <mxCell id="TG-YVFUVCGgv4PHO8d8e-172" value="" style="rounded=0;whiteSpace=wrap;html=1;fillColor=#e5dc7b;" vertex="1" parent="1">
          <mxGeometry x="922.37" y="620" width="10" height="20" as="geometry" />
        </mxCell>
        <mxCell id="TG-YVFUVCGgv4PHO8d8e-173" value="" style="rounded=0;whiteSpace=wrap;html=1;fillColor=#e5dc7b;" vertex="1" parent="1">
          <mxGeometry x="932.37" y="620" width="10" height="20" as="geometry" />
        </mxCell>
        <mxCell id="TG-YVFUVCGgv4PHO8d8e-174" value="" style="rounded=0;whiteSpace=wrap;html=1;fillColor=#e5dc7b;" vertex="1" parent="1">
          <mxGeometry x="942.37" y="620" width="10" height="20" as="geometry" />
        </mxCell>
        <mxCell id="TG-YVFUVCGgv4PHO8d8e-175" value="" style="rounded=0;whiteSpace=wrap;html=1;fillColor=#e5dc7b;" vertex="1" parent="1">
          <mxGeometry x="952.37" y="620" width="10" height="20" as="geometry" />
        </mxCell>
        <mxCell id="TG-YVFUVCGgv4PHO8d8e-176" value="" style="rounded=0;whiteSpace=wrap;html=1;fillColor=#e5dc7b;" vertex="1" parent="1">
          <mxGeometry x="962.37" y="620" width="10" height="20" as="geometry" />
        </mxCell>
        <mxCell id="TG-YVFUVCGgv4PHO8d8e-177" value="" style="rounded=0;whiteSpace=wrap;html=1;fillColor=#e5dc7b;" vertex="1" parent="1">
          <mxGeometry x="972.37" y="620" width="10" height="20" as="geometry" />
        </mxCell>
        <mxCell id="TG-YVFUVCGgv4PHO8d8e-178" value="" style="rounded=0;whiteSpace=wrap;html=1;fillColor=#e5dc7b;" vertex="1" parent="1">
          <mxGeometry x="982.37" y="620" width="10" height="20" as="geometry" />
        </mxCell>
        <mxCell id="TG-YVFUVCGgv4PHO8d8e-179" value="" style="rounded=0;whiteSpace=wrap;html=1;fillColor=#e5dc7b;" vertex="1" parent="1">
          <mxGeometry x="992.37" y="620" width="10" height="20" as="geometry" />
        </mxCell>
        <mxCell id="TG-YVFUVCGgv4PHO8d8e-180" value="" style="rounded=0;whiteSpace=wrap;html=1;fillColor=#e5dc7b;" vertex="1" parent="1">
          <mxGeometry x="1002.37" y="620" width="10" height="20" as="geometry" />
        </mxCell>
        <mxCell id="TG-YVFUVCGgv4PHO8d8e-181" value="" style="rounded=0;whiteSpace=wrap;html=1;fillColor=#e5dc7b;" vertex="1" parent="1">
          <mxGeometry x="1012.37" y="620" width="10" height="20" as="geometry" />
        </mxCell>
        <mxCell id="TG-YVFUVCGgv4PHO8d8e-182" value="" style="rounded=0;whiteSpace=wrap;html=1;fillColor=#e5dc7b;" vertex="1" parent="1">
          <mxGeometry x="1022.37" y="620" width="10" height="20" as="geometry" />
        </mxCell>
        <mxCell id="TG-YVFUVCGgv4PHO8d8e-183" value="" style="rounded=0;whiteSpace=wrap;html=1;fillColor=#e5dc7b;" vertex="1" parent="1">
          <mxGeometry x="1032.37" y="620" width="10" height="20" as="geometry" />
        </mxCell>
        <mxCell id="TG-YVFUVCGgv4PHO8d8e-184" value="" style="rounded=0;whiteSpace=wrap;html=1;fillColor=#e5dc7b;" vertex="1" parent="1">
          <mxGeometry x="1042.3700000000001" y="620" width="10" height="20" as="geometry" />
        </mxCell>
        <mxCell id="TG-YVFUVCGgv4PHO8d8e-185" value="" style="rounded=0;whiteSpace=wrap;html=1;fillColor=#e5dc7b;" vertex="1" parent="1">
          <mxGeometry x="1052.3700000000001" y="620" width="10" height="20" as="geometry" />
        </mxCell>
        <mxCell id="TG-YVFUVCGgv4PHO8d8e-186" value="" style="rounded=0;whiteSpace=wrap;html=1;fillColor=#e5dc7b;" vertex="1" parent="1">
          <mxGeometry x="1062.3700000000001" y="620" width="10" height="20" as="geometry" />
        </mxCell>
        <mxCell id="TG-YVFUVCGgv4PHO8d8e-187" value="" style="rounded=0;whiteSpace=wrap;html=1;fillColor=#e5dc7b;" vertex="1" parent="1">
          <mxGeometry x="1072.3700000000001" y="620" width="10" height="20" as="geometry" />
        </mxCell>
        <mxCell id="TG-YVFUVCGgv4PHO8d8e-188" value="" style="rounded=0;whiteSpace=wrap;html=1;fillColor=#e5dc7b;" vertex="1" parent="1">
          <mxGeometry x="1082.3700000000001" y="620" width="10" height="20" as="geometry" />
        </mxCell>
        <mxCell id="TG-YVFUVCGgv4PHO8d8e-189" value="" style="rounded=0;whiteSpace=wrap;html=1;fillColor=#e5dc7b;" vertex="1" parent="1">
          <mxGeometry x="1092.3700000000001" y="620" width="10" height="20" as="geometry" />
        </mxCell>
        <mxCell id="TG-YVFUVCGgv4PHO8d8e-190" value="" style="rounded=0;whiteSpace=wrap;html=1;fillColor=#e5dc7b;" vertex="1" parent="1">
          <mxGeometry x="1102.3700000000001" y="620" width="10" height="20" as="geometry" />
        </mxCell>
        <mxCell id="TG-YVFUVCGgv4PHO8d8e-191" value="" style="rounded=0;whiteSpace=wrap;html=1;fillColor=#e5dc7b;" vertex="1" parent="1">
          <mxGeometry x="1112.3700000000001" y="620" width="10" height="20" as="geometry" />
        </mxCell>
        <mxCell id="TG-YVFUVCGgv4PHO8d8e-192" value="" style="rounded=0;whiteSpace=wrap;html=1;fillColor=#e5dc7b;" vertex="1" parent="1">
          <mxGeometry x="1122.3700000000001" y="620" width="10" height="20" as="geometry" />
        </mxCell>
        <mxCell id="TG-YVFUVCGgv4PHO8d8e-193" value="" style="rounded=0;whiteSpace=wrap;html=1;fillColor=#e5dc7b;" vertex="1" parent="1">
          <mxGeometry x="1132.3700000000001" y="620" width="10" height="20" as="geometry" />
        </mxCell>
        <mxCell id="TG-YVFUVCGgv4PHO8d8e-194" value="" style="rounded=0;whiteSpace=wrap;html=1;fillColor=#e5dc7b;" vertex="1" parent="1">
          <mxGeometry x="1142.3700000000001" y="620" width="10" height="20" as="geometry" />
        </mxCell>
        <mxCell id="TG-YVFUVCGgv4PHO8d8e-195" value="" style="rounded=0;whiteSpace=wrap;html=1;fillColor=#e5dc7b;" vertex="1" parent="1">
          <mxGeometry x="1152.3700000000001" y="620" width="10" height="20" as="geometry" />
        </mxCell>
        <mxCell id="TG-YVFUVCGgv4PHO8d8e-196" value="" style="rounded=0;whiteSpace=wrap;html=1;fillColor=#e5dc7b;" vertex="1" parent="1">
          <mxGeometry x="1162.3700000000001" y="620" width="10" height="20" as="geometry" />
        </mxCell>
        <mxCell id="TG-YVFUVCGgv4PHO8d8e-197" value="" style="rounded=0;whiteSpace=wrap;html=1;fillColor=#e5dc7b;" vertex="1" parent="1">
          <mxGeometry x="1172.3700000000001" y="620" width="10" height="20" as="geometry" />
        </mxCell>
        <mxCell id="TG-YVFUVCGgv4PHO8d8e-198" value="" style="rounded=0;whiteSpace=wrap;html=1;fillColor=#e5dc7b;" vertex="1" parent="1">
          <mxGeometry x="1182.3700000000001" y="620" width="10" height="20" as="geometry" />
        </mxCell>
        <mxCell id="TG-YVFUVCGgv4PHO8d8e-199" value="" style="rounded=0;whiteSpace=wrap;html=1;fillColor=#e5dc7b;" vertex="1" parent="1">
          <mxGeometry x="1192.3700000000001" y="620" width="10" height="20" as="geometry" />
        </mxCell>
        <mxCell id="TG-YVFUVCGgv4PHO8d8e-200" value="" style="rounded=0;whiteSpace=wrap;html=1;fillColor=#e5dc7b;" vertex="1" parent="1">
          <mxGeometry x="1202.3700000000001" y="620" width="10" height="20" as="geometry" />
        </mxCell>
        <mxCell id="TG-YVFUVCGgv4PHO8d8e-201" value="" style="rounded=0;whiteSpace=wrap;html=1;fillColor=#e5dc7b;" vertex="1" parent="1">
          <mxGeometry x="1212.3700000000001" y="620" width="10" height="20" as="geometry" />
        </mxCell>
        <mxCell id="TG-YVFUVCGgv4PHO8d8e-202" value="" style="rounded=0;whiteSpace=wrap;html=1;fillColor=#e5dc7b;" vertex="1" parent="1">
          <mxGeometry x="1222.3700000000001" y="620" width="10" height="20" as="geometry" />
        </mxCell>
        <mxCell id="TG-YVFUVCGgv4PHO8d8e-203" value="" style="rounded=0;whiteSpace=wrap;html=1;fillColor=#e5dc7b;" vertex="1" parent="1">
          <mxGeometry x="1232.3700000000001" y="620" width="10" height="20" as="geometry" />
        </mxCell>
        <mxCell id="TG-YVFUVCGgv4PHO8d8e-204" value="" style="rounded=0;whiteSpace=wrap;html=1;fillColor=#e5dc7b;" vertex="1" parent="1">
          <mxGeometry x="856.37" y="620" width="10" height="20" as="geometry" />
        </mxCell>
        <mxCell id="TG-YVFUVCGgv4PHO8d8e-205" value="" style="rounded=0;whiteSpace=wrap;html=1;fillColor=#e5dc7b;" vertex="1" parent="1">
          <mxGeometry x="866.37" y="620" width="10" height="20" as="geometry" />
        </mxCell>
        <mxCell id="TG-YVFUVCGgv4PHO8d8e-206" value="" style="rounded=0;whiteSpace=wrap;html=1;fillColor=#e5dc7b;" vertex="1" parent="1">
          <mxGeometry x="876.37" y="620" width="10" height="20" as="geometry" />
        </mxCell>
        <mxCell id="TG-YVFUVCGgv4PHO8d8e-207" value="" style="rounded=0;whiteSpace=wrap;html=1;fillColor=#e5dc7b;" vertex="1" parent="1">
          <mxGeometry x="626.37" y="620" width="10" height="20" as="geometry" />
        </mxCell>
        <mxCell id="TG-YVFUVCGgv4PHO8d8e-208" value="" style="rounded=0;whiteSpace=wrap;html=1;fillColor=#e5dc7b;" vertex="1" parent="1">
          <mxGeometry x="126.37" y="620" width="10" height="20" as="geometry" />
        </mxCell>
        <mxCell id="TG-YVFUVCGgv4PHO8d8e-209" value="" style="rounded=0;whiteSpace=wrap;html=1;fillColor=#e5dc7b;" vertex="1" parent="1">
          <mxGeometry x="136.37" y="620" width="10" height="20" as="geometry" />
        </mxCell>
        <mxCell id="TG-YVFUVCGgv4PHO8d8e-210" value="" style="rounded=0;whiteSpace=wrap;html=1;fillColor=#e5dc7b;" vertex="1" parent="1">
          <mxGeometry x="146.37" y="620" width="10" height="20" as="geometry" />
        </mxCell>
        <mxCell id="TG-YVFUVCGgv4PHO8d8e-211" value="" style="rounded=0;whiteSpace=wrap;html=1;fillColor=#e5dc7b;" vertex="1" parent="1">
          <mxGeometry x="156.37" y="620" width="10" height="20" as="geometry" />
        </mxCell>
        <mxCell id="TG-YVFUVCGgv4PHO8d8e-212" value="" style="rounded=0;whiteSpace=wrap;html=1;fillColor=#e5dc7b;" vertex="1" parent="1">
          <mxGeometry x="166.37" y="620" width="10" height="20" as="geometry" />
        </mxCell>
        <mxCell id="TG-YVFUVCGgv4PHO8d8e-213" value="" style="rounded=0;whiteSpace=wrap;html=1;fillColor=#e5dc7b;" vertex="1" parent="1">
          <mxGeometry x="176.37" y="620" width="10" height="20" as="geometry" />
        </mxCell>
        <mxCell id="TG-YVFUVCGgv4PHO8d8e-214" value="" style="rounded=0;whiteSpace=wrap;html=1;fillColor=#e5dc7b;" vertex="1" parent="1">
          <mxGeometry x="186.37" y="620" width="10" height="20" as="geometry" />
        </mxCell>
        <mxCell id="TG-YVFUVCGgv4PHO8d8e-215" value="" style="rounded=0;whiteSpace=wrap;html=1;fillColor=#e5dc7b;" vertex="1" parent="1">
          <mxGeometry x="196.37" y="620" width="10" height="20" as="geometry" />
        </mxCell>
        <mxCell id="TG-YVFUVCGgv4PHO8d8e-216" value="" style="rounded=0;whiteSpace=wrap;html=1;fillColor=#e5dc7b;" vertex="1" parent="1">
          <mxGeometry x="206.37" y="620" width="10" height="20" as="geometry" />
        </mxCell>
        <mxCell id="TG-YVFUVCGgv4PHO8d8e-217" value="" style="rounded=0;whiteSpace=wrap;html=1;fillColor=#e5dc7b;" vertex="1" parent="1">
          <mxGeometry x="216.37" y="620" width="10" height="20" as="geometry" />
        </mxCell>
        <mxCell id="TG-YVFUVCGgv4PHO8d8e-218" value="" style="rounded=0;whiteSpace=wrap;html=1;fillColor=#e5dc7b;" vertex="1" parent="1">
          <mxGeometry x="226.37" y="620" width="10" height="20" as="geometry" />
        </mxCell>
        <mxCell id="TG-YVFUVCGgv4PHO8d8e-219" value="" style="rounded=0;whiteSpace=wrap;html=1;fillColor=#e5dc7b;" vertex="1" parent="1">
          <mxGeometry x="236.37" y="620" width="10" height="20" as="geometry" />
        </mxCell>
        <mxCell id="TG-YVFUVCGgv4PHO8d8e-220" value="" style="rounded=0;whiteSpace=wrap;html=1;fillColor=#e5dc7b;" vertex="1" parent="1">
          <mxGeometry x="1242.3700000000001" y="620" width="10" height="20" as="geometry" />
        </mxCell>
        <mxCell id="TG-YVFUVCGgv4PHO8d8e-221" value="" style="rounded=0;whiteSpace=wrap;html=1;fillColor=#e5dc7b;" vertex="1" parent="1">
          <mxGeometry x="1252.3700000000001" y="620" width="10" height="20" as="geometry" />
        </mxCell>
        <mxCell id="TG-YVFUVCGgv4PHO8d8e-222" value="" style="rounded=0;whiteSpace=wrap;html=1;fillColor=#e5dc7b;" vertex="1" parent="1">
          <mxGeometry x="1262.3700000000001" y="620" width="10" height="20" as="geometry" />
        </mxCell>
        <mxCell id="TG-YVFUVCGgv4PHO8d8e-223" value="" style="rounded=0;whiteSpace=wrap;html=1;fillColor=#e5dc7b;" vertex="1" parent="1">
          <mxGeometry x="1272.3700000000001" y="620" width="10" height="20" as="geometry" />
        </mxCell>
        <mxCell id="TG-YVFUVCGgv4PHO8d8e-224" value="" style="rounded=0;whiteSpace=wrap;html=1;fillColor=#e5dc7b;" vertex="1" parent="1">
          <mxGeometry x="1282.3700000000001" y="620" width="10" height="20" as="geometry" />
        </mxCell>
        <mxCell id="TG-YVFUVCGgv4PHO8d8e-225" value="" style="rounded=0;whiteSpace=wrap;html=1;fillColor=#e5dc7b;" vertex="1" parent="1">
          <mxGeometry x="1292.3700000000001" y="620" width="10" height="20" as="geometry" />
        </mxCell>
        <mxCell id="TG-YVFUVCGgv4PHO8d8e-226" value="" style="rounded=0;whiteSpace=wrap;html=1;fillColor=#e5dc7b;" vertex="1" parent="1">
          <mxGeometry x="1302.3700000000001" y="620" width="10" height="20" as="geometry" />
        </mxCell>
        <mxCell id="TG-YVFUVCGgv4PHO8d8e-227" value="" style="rounded=0;whiteSpace=wrap;html=1;fillColor=#e5dc7b;" vertex="1" parent="1">
          <mxGeometry x="1312.3700000000001" y="620" width="10" height="20" as="geometry" />
        </mxCell>
        <mxCell id="TG-YVFUVCGgv4PHO8d8e-228" value="" style="rounded=0;whiteSpace=wrap;html=1;fillColor=#e5dc7b;" vertex="1" parent="1">
          <mxGeometry x="1322.3700000000001" y="620" width="10" height="20" as="geometry" />
        </mxCell>
        <mxCell id="TG-YVFUVCGgv4PHO8d8e-229" value="" style="rounded=0;whiteSpace=wrap;html=1;fillColor=#e5dc7b;" vertex="1" parent="1">
          <mxGeometry x="1332.3700000000001" y="620" width="10" height="20" as="geometry" />
        </mxCell>
        <mxCell id="TG-YVFUVCGgv4PHO8d8e-230" value="" style="shape=or;whiteSpace=wrap;html=1;direction=south;" vertex="1" parent="1">
          <mxGeometry x="724.37" y="620" width="20" height="30" as="geometry" />
        </mxCell>
        <mxCell id="TG-YVFUVCGgv4PHO8d8e-231" value="" style="html=1;shadow=0;dashed=0;align=center;verticalAlign=middle;shape=mxgraph.arrows2.bendDoubleArrow;dy=6.29;dx=32.02;arrowHead=51.38;rounded=1;rotation=-45;" vertex="1" parent="1">
          <mxGeometry x="8.629999999999988" y="413.64" width="173.1" height="178.41" as="geometry" />
        </mxCell>
        <mxCell id="TG-YVFUVCGgv4PHO8d8e-232" value="FLIP" style="text;html=1;align=center;verticalAlign=middle;whiteSpace=wrap;rounded=0;fontStyle=1;fontSize=19;" vertex="1" parent="1">
          <mxGeometry x="24.369999999999997" y="487.84000000000003" width="60" height="30" as="geometry" />
        </mxCell>
        <mxCell id="TG-YVFUVCGgv4PHO8d8e-233" style="edgeStyle=orthogonalEdgeStyle;rounded=0;orthogonalLoop=1;jettySize=auto;html=1;exitX=0.25;exitY=1;exitDx=0;exitDy=0;entryX=1;entryY=0.5;entryDx=0;entryDy=0;strokeWidth=2;strokeColor=#d79b00;endArrow=none;endFill=0;fillColor=#dae8fc;" edge="1" parent="1">
          <mxGeometry relative="1" as="geometry">
            <mxPoint x="634.37" y="210.95" as="sourcePoint" />
            <mxPoint x="194.37" y="196.45" as="targetPoint" />
            <Array as="points">
              <mxPoint x="554.37" y="211" />
              <mxPoint x="554.37" y="197" />
            </Array>
          </mxGeometry>
        </mxCell>
        <mxCell id="TG-YVFUVCGgv4PHO8d8e-234" style="edgeStyle=orthogonalEdgeStyle;rounded=0;orthogonalLoop=1;jettySize=auto;html=1;exitX=0.75;exitY=1;exitDx=0;exitDy=0;strokeWidth=2;strokeColor=#d79b00;endArrow=none;endFill=0;fillColor=#dae8fc;" edge="1" parent="1">
          <mxGeometry relative="1" as="geometry">
            <mxPoint x="634.37" y="275" as="sourcePoint" />
            <mxPoint x="194.37" y="287.5" as="targetPoint" />
            <Array as="points">
              <mxPoint x="554.37" y="275" />
              <mxPoint x="554.37" y="287" />
            </Array>
          </mxGeometry>
        </mxCell>
        <mxCell id="TG-YVFUVCGgv4PHO8d8e-235" style="edgeStyle=orthogonalEdgeStyle;rounded=0;orthogonalLoop=1;jettySize=auto;html=1;exitX=0.25;exitY=0;exitDx=0;exitDy=0;strokeWidth=2;strokeColor=#d79b00;endArrow=none;endFill=0;entryX=0;entryY=0.5;entryDx=0;entryDy=0;fillColor=#d5e8d4;" edge="1" parent="1">
          <mxGeometry relative="1" as="geometry">
            <mxPoint x="834.87" y="278" as="sourcePoint" />
            <mxPoint x="1275.8700000000001" y="291" as="targetPoint" />
            <Array as="points">
              <mxPoint x="914.37" y="278" />
              <mxPoint x="914.37" y="291" />
            </Array>
          </mxGeometry>
        </mxCell>
        <mxCell id="TG-YVFUVCGgv4PHO8d8e-236" style="edgeStyle=orthogonalEdgeStyle;rounded=0;orthogonalLoop=1;jettySize=auto;html=1;exitX=0.25;exitY=0;exitDx=0;exitDy=0;strokeWidth=2;strokeColor=#d79b00;endArrow=none;endFill=0;fillColor=#d5e8d4;" edge="1" parent="1">
          <mxGeometry relative="1" as="geometry">
            <mxPoint x="834.87" y="212" as="sourcePoint" />
            <mxPoint x="1275.8700000000001" y="197.5" as="targetPoint" />
            <Array as="points">
              <mxPoint x="914.37" y="212" />
              <mxPoint x="914.37" y="198" />
            </Array>
          </mxGeometry>
        </mxCell>
        <mxCell id="TG-YVFUVCGgv4PHO8d8e-237" style="edgeStyle=orthogonalEdgeStyle;rounded=0;orthogonalLoop=1;jettySize=auto;html=1;exitX=0.25;exitY=1;exitDx=0;exitDy=0;entryX=1;entryY=0.5;entryDx=0;entryDy=0;strokeWidth=2;strokeColor=#b85450;endArrow=none;endFill=0;fillColor=#dae8fc;" edge="1" parent="1">
          <mxGeometry relative="1" as="geometry">
            <mxPoint x="631.37" y="710.25" as="sourcePoint" />
            <mxPoint x="191.37" y="695.75" as="targetPoint" />
            <Array as="points">
              <mxPoint x="591.37" y="710.75" />
              <mxPoint x="591.37" y="695.75" />
            </Array>
          </mxGeometry>
        </mxCell>
        <mxCell id="TG-YVFUVCGgv4PHO8d8e-238" style="edgeStyle=orthogonalEdgeStyle;rounded=0;orthogonalLoop=1;jettySize=auto;html=1;exitX=0.75;exitY=1;exitDx=0;exitDy=0;strokeWidth=2;strokeColor=#b85450;endArrow=none;endFill=0;fillColor=#dae8fc;" edge="1" parent="1">
          <mxGeometry relative="1" as="geometry">
            <mxPoint x="634.37" y="820.5" as="sourcePoint" />
            <mxPoint x="194.37" y="833" as="targetPoint" />
            <Array as="points">
              <mxPoint x="594.37" y="820" />
              <mxPoint x="594.37" y="833" />
            </Array>
          </mxGeometry>
        </mxCell>
        <mxCell id="TG-YVFUVCGgv4PHO8d8e-239" style="edgeStyle=orthogonalEdgeStyle;rounded=0;orthogonalLoop=1;jettySize=auto;html=1;exitX=0.25;exitY=0;exitDx=0;exitDy=0;strokeWidth=2;strokeColor=#9673a6;endArrow=none;endFill=0;fillColor=#d5e8d4;" edge="1" parent="1">
          <mxGeometry relative="1" as="geometry">
            <mxPoint x="834.37" y="711.5" as="sourcePoint" />
            <mxPoint x="1275.3700000000001" y="697" as="targetPoint" />
            <Array as="points">
              <mxPoint x="874.37" y="712" />
              <mxPoint x="874.37" y="697" />
            </Array>
          </mxGeometry>
        </mxCell>
        <mxCell id="TG-YVFUVCGgv4PHO8d8e-240" value="&lt;font style=&quot;font-size: 14px;&quot; color=&quot;#ababab&quot;&gt;&lt;b&gt;RCD&lt;/b&gt;&lt;/font&gt;" style="rounded=0;whiteSpace=wrap;html=1;strokeColor=#454744;fillColor=#464646;direction=south;" vertex="1" parent="1">
          <mxGeometry x="634.37" y="700" width="200" height="130" as="geometry" />
        </mxCell>
        <mxCell id="TG-YVFUVCGgv4PHO8d8e-241" style="edgeStyle=orthogonalEdgeStyle;rounded=0;orthogonalLoop=1;jettySize=auto;html=1;exitX=0.25;exitY=0;exitDx=0;exitDy=0;strokeWidth=2;strokeColor=#9673a6;endArrow=none;endFill=0;entryX=0;entryY=0.5;entryDx=0;entryDy=0;fillColor=#d5e8d4;" edge="1" parent="1">
          <mxGeometry relative="1" as="geometry">
            <mxPoint x="834.37" y="820" as="sourcePoint" />
            <mxPoint x="1275.3700000000001" y="833" as="targetPoint" />
            <Array as="points">
              <mxPoint x="874.37" y="820" />
              <mxPoint x="874.37" y="833" />
            </Array>
          </mxGeometry>
        </mxCell>
        <mxCell id="TG-YVFUVCGgv4PHO8d8e-242" value="QBCS1_A" style="text;html=1;align=center;verticalAlign=middle;whiteSpace=wrap;rounded=0;fontColor=#b85450;" vertex="1" parent="1">
          <mxGeometry x="529.37" y="829" width="60" height="30" as="geometry" />
        </mxCell>
        <mxCell id="TG-YVFUVCGgv4PHO8d8e-243" value="QACS1_A" style="text;html=1;align=center;verticalAlign=middle;whiteSpace=wrap;rounded=0;fontColor=#b85450;" vertex="1" parent="1">
          <mxGeometry x="524.37" y="671" width="60" height="30" as="geometry" />
        </mxCell>
        <mxCell id="TG-YVFUVCGgv4PHO8d8e-244" value="QBCS1_B" style="text;html=1;align=center;verticalAlign=middle;whiteSpace=wrap;rounded=0;fontColor=#9673a6;" vertex="1" parent="1">
          <mxGeometry x="885.37" y="830" width="60" height="30" as="geometry" />
        </mxCell>
        <mxCell id="TG-YVFUVCGgv4PHO8d8e-245" value="QACS1_B" style="text;html=1;align=center;verticalAlign=middle;whiteSpace=wrap;rounded=0;fontColor=#9673a6;" vertex="1" parent="1">
          <mxGeometry x="882.37" y="670" width="60" height="30" as="geometry" />
        </mxCell>
        <mxCell id="TG-YVFUVCGgv4PHO8d8e-246" style="edgeStyle=orthogonalEdgeStyle;rounded=0;orthogonalLoop=1;jettySize=auto;html=1;exitX=0.25;exitY=1;exitDx=0;exitDy=0;entryX=1;entryY=0.5;entryDx=0;entryDy=0;strokeWidth=2;strokeColor=#d79b00;endArrow=none;endFill=0;fillColor=#dae8fc;" edge="1" parent="1">
          <mxGeometry relative="1" as="geometry">
            <mxPoint x="634.37" y="732.95" as="sourcePoint" />
            <mxPoint x="194.37" y="718.45" as="targetPoint" />
            <Array as="points">
              <mxPoint x="554.37" y="733" />
              <mxPoint x="554.37" y="719" />
            </Array>
          </mxGeometry>
        </mxCell>
        <mxCell id="TG-YVFUVCGgv4PHO8d8e-247" style="edgeStyle=orthogonalEdgeStyle;rounded=0;orthogonalLoop=1;jettySize=auto;html=1;exitX=0.75;exitY=1;exitDx=0;exitDy=0;strokeWidth=2;strokeColor=#d79b00;endArrow=none;endFill=0;fillColor=#dae8fc;" edge="1" parent="1">
          <mxGeometry relative="1" as="geometry">
            <mxPoint x="634.37" y="798" as="sourcePoint" />
            <mxPoint x="194.37" y="810.5" as="targetPoint" />
            <Array as="points">
              <mxPoint x="554.37" y="798" />
              <mxPoint x="554.37" y="810" />
            </Array>
          </mxGeometry>
        </mxCell>
        <mxCell id="TG-YVFUVCGgv4PHO8d8e-248" style="edgeStyle=orthogonalEdgeStyle;rounded=0;orthogonalLoop=1;jettySize=auto;html=1;exitX=0.25;exitY=0;exitDx=0;exitDy=0;strokeWidth=2;strokeColor=#d79b00;endArrow=none;endFill=0;entryX=0;entryY=0.5;entryDx=0;entryDy=0;fillColor=#d5e8d4;" edge="1" parent="1">
          <mxGeometry relative="1" as="geometry">
            <mxPoint x="834.87" y="798" as="sourcePoint" />
            <mxPoint x="1275.8700000000001" y="811" as="targetPoint" />
            <Array as="points">
              <mxPoint x="914.37" y="798" />
              <mxPoint x="914.37" y="811" />
            </Array>
          </mxGeometry>
        </mxCell>
        <mxCell id="TG-YVFUVCGgv4PHO8d8e-249" style="edgeStyle=orthogonalEdgeStyle;rounded=0;orthogonalLoop=1;jettySize=auto;html=1;exitX=0.25;exitY=0;exitDx=0;exitDy=0;strokeWidth=2;strokeColor=#d79b00;endArrow=none;endFill=0;fillColor=#d5e8d4;" edge="1" parent="1">
          <mxGeometry relative="1" as="geometry">
            <mxPoint x="834.87" y="732" as="sourcePoint" />
            <mxPoint x="1275.8700000000001" y="717.5" as="targetPoint" />
            <Array as="points">
              <mxPoint x="914.37" y="732" />
              <mxPoint x="914.37" y="718" />
            </Array>
          </mxGeometry>
        </mxCell>
        <mxCell id="TG-YVFUVCGgv4PHO8d8e-250" value="QBCK_A_t/c" style="text;html=1;align=center;verticalAlign=middle;whiteSpace=wrap;rounded=0;fontColor=#d79b00;" vertex="1" parent="1">
          <mxGeometry x="564.37" y="186" width="60" height="30" as="geometry" />
        </mxCell>
        <mxCell id="TG-YVFUVCGgv4PHO8d8e-251" value="QACK_A_t/c" style="text;html=1;align=center;verticalAlign=middle;whiteSpace=wrap;rounded=0;fontColor=#d79b00;" vertex="1" parent="1">
          <mxGeometry x="565.37" y="269" width="60" height="30" as="geometry" />
        </mxCell>
        <mxCell id="TG-YVFUVCGgv4PHO8d8e-252" value="QBCK_B_t/c" style="text;html=1;align=center;verticalAlign=middle;whiteSpace=wrap;rounded=0;fontColor=#d79b00;" vertex="1" parent="1">
          <mxGeometry x="843.37" y="188" width="60" height="30" as="geometry" />
        </mxCell>
        <mxCell id="TG-YVFUVCGgv4PHO8d8e-253" value="QACK_B_t/c" style="text;html=1;align=center;verticalAlign=middle;whiteSpace=wrap;rounded=0;fontColor=#d79b00;" vertex="1" parent="1">
          <mxGeometry x="843.37" y="273" width="60" height="30" as="geometry" />
        </mxCell>
        <mxCell id="TG-YVFUVCGgv4PHO8d8e-254" value="QCCK_A_t/c" style="text;html=1;align=center;verticalAlign=middle;whiteSpace=wrap;rounded=0;fontColor=#d79b00;" vertex="1" parent="1">
          <mxGeometry x="564.37" y="710" width="60" height="30" as="geometry" />
        </mxCell>
        <mxCell id="TG-YVFUVCGgv4PHO8d8e-255" value="QDCK_A_t/c" style="text;html=1;align=center;verticalAlign=middle;whiteSpace=wrap;rounded=0;fontColor=#d79b00;" vertex="1" parent="1">
          <mxGeometry x="565.37" y="791" width="60" height="30" as="geometry" />
        </mxCell>
        <mxCell id="TG-YVFUVCGgv4PHO8d8e-256" value="QCCK_B_t/c" style="text;html=1;align=center;verticalAlign=middle;whiteSpace=wrap;rounded=0;fontColor=#d79b00;" vertex="1" parent="1">
          <mxGeometry x="846.37" y="709" width="60" height="30" as="geometry" />
        </mxCell>
        <mxCell id="TG-YVFUVCGgv4PHO8d8e-257" value="QDCK_B_t/c" style="text;html=1;align=center;verticalAlign=middle;whiteSpace=wrap;rounded=0;fontColor=#d79b00;" vertex="1" parent="1">
          <mxGeometry x="843.37" y="791" width="60" height="30" as="geometry" />
        </mxCell>
        <mxCell id="TG-YVFUVCGgv4PHO8d8e-258" value="" style="endArrow=classic;html=1;rounded=0;strokeWidth=4;fillColor=#ffe6cc;strokeColor=#0aa7f5;" edge="1" parent="1">
          <mxGeometry width="50" height="50" relative="1" as="geometry">
            <mxPoint x="664.37" y="530" as="sourcePoint" />
            <mxPoint x="694.37" y="310" as="targetPoint" />
            <Array as="points">
              <mxPoint x="664.37" y="510" />
              <mxPoint x="694.37" y="510" />
              <mxPoint x="694.37" y="420" />
            </Array>
          </mxGeometry>
        </mxCell>
        <mxCell id="TG-YVFUVCGgv4PHO8d8e-259" value="" style="endArrow=classic;html=1;rounded=0;strokeWidth=4;fillColor=#fff2cc;strokeColor=#082fa6;" edge="1" parent="1">
          <mxGeometry width="50" height="50" relative="1" as="geometry">
            <mxPoint x="734.37" y="530" as="sourcePoint" />
            <mxPoint x="710.37" y="310" as="targetPoint" />
            <Array as="points">
              <mxPoint x="734.37" y="510" />
              <mxPoint x="710.37" y="510" />
              <mxPoint x="710.37" y="420" />
            </Array>
          </mxGeometry>
        </mxCell>
        <mxCell id="TG-YVFUVCGgv4PHO8d8e-260" value="&lt;span style=&quot;font-size: 14px; font-weight: 700; text-align: center;&quot;&gt;&lt;font&gt;DCA[6:0]_A&lt;/font&gt;&lt;/span&gt;" style="text;whiteSpace=wrap;html=1;fontColor=#0aa7f5;fontSize=12;" vertex="1" parent="1">
          <mxGeometry x="624.37" y="530" width="80" height="30" as="geometry" />
        </mxCell>
        <mxCell id="TG-YVFUVCGgv4PHO8d8e-261" value="&lt;span style=&quot;font-size: 14px; font-weight: 700; text-align: center;&quot;&gt;DCA[6:0]_B&lt;/span&gt;" style="text;whiteSpace=wrap;html=1;fontColor=#0a2ea6;fontSize=12;fontFamily=Helvetica;" vertex="1" parent="1">
          <mxGeometry x="704.37" y="530" width="80" height="30" as="geometry" />
        </mxCell>
        <mxCell id="TG-YVFUVCGgv4PHO8d8e-262" style="edgeStyle=orthogonalEdgeStyle;rounded=0;orthogonalLoop=1;jettySize=auto;html=1;exitX=0.25;exitY=1;exitDx=0;exitDy=0;entryX=1;entryY=0.5;entryDx=0;entryDy=0;strokeWidth=2;strokeColor=#0aa7f5;endArrow=none;endFill=0;fillColor=#dae8fc;" edge="1" parent="1">
          <mxGeometry relative="1" as="geometry">
            <mxPoint x="636.37" y="237.92" as="sourcePoint" />
            <mxPoint x="196.37" y="223.42" as="targetPoint" />
            <Array as="points">
              <mxPoint x="524.37" y="238" />
              <mxPoint x="524.37" y="223" />
            </Array>
          </mxGeometry>
        </mxCell>
        <mxCell id="TG-YVFUVCGgv4PHO8d8e-263" style="edgeStyle=orthogonalEdgeStyle;rounded=0;orthogonalLoop=1;jettySize=auto;html=1;exitX=0.75;exitY=1;exitDx=0;exitDy=0;strokeWidth=2;strokeColor=#0aa7f5;endArrow=none;endFill=0;fillColor=#dae8fc;" edge="1" parent="1">
          <mxGeometry relative="1" as="geometry">
            <mxPoint x="634.37" y="253.74" as="sourcePoint" />
            <mxPoint x="194.37" y="266.24" as="targetPoint" />
            <Array as="points">
              <mxPoint x="634.37" y="250" />
              <mxPoint x="524.37" y="250" />
              <mxPoint x="524.37" y="266" />
            </Array>
          </mxGeometry>
        </mxCell>
        <mxCell id="TG-YVFUVCGgv4PHO8d8e-264" value="&lt;font style=&quot;font-size: 14px;&quot; color=&quot;#ababab&quot;&gt;DQ&lt;/font&gt;&lt;div style=&quot;font-size: 14px;&quot;&gt;&lt;font color=&quot;#ababab&quot;&gt;x4&lt;/font&gt;&lt;/div&gt;" style="rounded=0;whiteSpace=wrap;html=1;strokeColor=#454744;fillColor=#464646;" vertex="1" parent="1">
          <mxGeometry x="134.37" y="250" width="60" height="80" as="geometry" />
        </mxCell>
        <mxCell id="TG-YVFUVCGgv4PHO8d8e-265" value="&lt;font style=&quot;font-size: 14px;&quot; color=&quot;#ababab&quot;&gt;DQ&lt;/font&gt;&lt;div style=&quot;font-size: 14px;&quot;&gt;&lt;font color=&quot;#ababab&quot;&gt;x4&lt;/font&gt;&lt;/div&gt;" style="rounded=0;whiteSpace=wrap;html=1;strokeColor=#454744;fillColor=#464646;" vertex="1" parent="1">
          <mxGeometry x="214.37" y="250" width="60" height="80" as="geometry" />
        </mxCell>
        <mxCell id="TG-YVFUVCGgv4PHO8d8e-266" value="&lt;font style=&quot;font-size: 14px;&quot; color=&quot;#ababab&quot;&gt;DQ&lt;/font&gt;&lt;div style=&quot;font-size: 14px;&quot;&gt;&lt;font color=&quot;#ababab&quot;&gt;x4&lt;/font&gt;&lt;/div&gt;" style="rounded=0;whiteSpace=wrap;html=1;strokeColor=#454744;fillColor=#464646;" vertex="1" parent="1">
          <mxGeometry x="294.37" y="250" width="60" height="80" as="geometry" />
        </mxCell>
        <mxCell id="TG-YVFUVCGgv4PHO8d8e-267" value="&lt;font style=&quot;font-size: 14px;&quot; color=&quot;#ababab&quot;&gt;DQ&lt;/font&gt;&lt;div style=&quot;font-size: 14px;&quot;&gt;&lt;font color=&quot;#ababab&quot;&gt;x4&lt;/font&gt;&lt;/div&gt;" style="rounded=0;whiteSpace=wrap;html=1;strokeColor=#454744;fillColor=#464646;" vertex="1" parent="1">
          <mxGeometry x="374.37" y="250" width="60" height="80" as="geometry" />
        </mxCell>
        <mxCell id="TG-YVFUVCGgv4PHO8d8e-268" value="&lt;font style=&quot;font-size: 14px;&quot; color=&quot;#ababab&quot;&gt;ECC&lt;/font&gt;&lt;div style=&quot;font-size: 14px;&quot;&gt;&lt;font color=&quot;#ababab&quot;&gt;x4&lt;/font&gt;&lt;/div&gt;" style="rounded=0;whiteSpace=wrap;html=1;strokeColor=#454744;fillColor=#464646;" vertex="1" parent="1">
          <mxGeometry x="454.37" y="250" width="60" height="80" as="geometry" />
        </mxCell>
        <mxCell id="TG-YVFUVCGgv4PHO8d8e-269" value="&lt;font color=&quot;#ababab&quot; style=&quot;font-size: 14px;&quot;&gt;DQ&lt;/font&gt;&lt;div style=&quot;font-size: 14px;&quot;&gt;&lt;font color=&quot;#ababab&quot; style=&quot;font-size: 14px;&quot;&gt;x4&lt;/font&gt;&lt;/div&gt;" style="rounded=0;whiteSpace=wrap;html=1;strokeColor=#454744;fillColor=#464646;" vertex="1" parent="1">
          <mxGeometry x="134.37" y="158" width="60" height="80" as="geometry" />
        </mxCell>
        <mxCell id="TG-YVFUVCGgv4PHO8d8e-270" value="&lt;font style=&quot;font-size: 14px;&quot; color=&quot;#ababab&quot;&gt;DQ&lt;/font&gt;&lt;div style=&quot;font-size: 14px;&quot;&gt;&lt;font color=&quot;#ababab&quot;&gt;x4&lt;/font&gt;&lt;/div&gt;" style="rounded=0;whiteSpace=wrap;html=1;strokeColor=#454744;fillColor=#464646;" vertex="1" parent="1">
          <mxGeometry x="214.37" y="158" width="60" height="80" as="geometry" />
        </mxCell>
        <mxCell id="TG-YVFUVCGgv4PHO8d8e-271" value="&lt;font style=&quot;font-size: 14px;&quot; color=&quot;#ababab&quot;&gt;DQ&lt;/font&gt;&lt;div style=&quot;font-size: 14px;&quot;&gt;&lt;font color=&quot;#ababab&quot;&gt;x4&lt;/font&gt;&lt;/div&gt;" style="rounded=0;whiteSpace=wrap;html=1;strokeColor=#454744;fillColor=#464646;" vertex="1" parent="1">
          <mxGeometry x="294.37" y="158" width="60" height="80" as="geometry" />
        </mxCell>
        <mxCell id="TG-YVFUVCGgv4PHO8d8e-272" value="&lt;font style=&quot;font-size: 14px;&quot; color=&quot;#ababab&quot;&gt;DQ&lt;/font&gt;&lt;div style=&quot;font-size: 14px;&quot;&gt;&lt;font color=&quot;#ababab&quot;&gt;x4&lt;/font&gt;&lt;/div&gt;" style="rounded=0;whiteSpace=wrap;html=1;strokeColor=#454744;fillColor=#464646;" vertex="1" parent="1">
          <mxGeometry x="374.37" y="158" width="60" height="80" as="geometry" />
        </mxCell>
        <mxCell id="TG-YVFUVCGgv4PHO8d8e-273" value="&lt;font style=&quot;font-size: 14px;&quot; color=&quot;#ababab&quot;&gt;ECC&lt;/font&gt;&lt;div style=&quot;font-size: 14px;&quot;&gt;&lt;font color=&quot;#ababab&quot;&gt;x4&lt;/font&gt;&lt;/div&gt;" style="rounded=0;whiteSpace=wrap;html=1;strokeColor=#454744;fillColor=#464646;" vertex="1" parent="1">
          <mxGeometry x="454.37" y="158" width="60" height="80" as="geometry" />
        </mxCell>
        <mxCell id="TG-YVFUVCGgv4PHO8d8e-274" value="QACA[13:0]_A" style="text;html=1;align=center;verticalAlign=middle;whiteSpace=wrap;rounded=0;fontColor=#0aa7f5;" vertex="1" parent="1">
          <mxGeometry x="536.37" y="245" width="98" height="30" as="geometry" />
        </mxCell>
        <mxCell id="TG-YVFUVCGgv4PHO8d8e-275" value="QBCA[13:0]_A" style="text;html=1;align=center;verticalAlign=middle;whiteSpace=wrap;rounded=0;fontColor=#0aa7f5;" vertex="1" parent="1">
          <mxGeometry x="534.37" y="213" width="102" height="30" as="geometry" />
        </mxCell>
        <mxCell id="TG-YVFUVCGgv4PHO8d8e-276" style="edgeStyle=orthogonalEdgeStyle;rounded=0;orthogonalLoop=1;jettySize=auto;html=1;exitX=0.25;exitY=1;exitDx=0;exitDy=0;entryX=1;entryY=0.5;entryDx=0;entryDy=0;strokeWidth=2;strokeColor=#0aa7f5;endArrow=none;endFill=0;fillColor=#dae8fc;" edge="1" parent="1">
          <mxGeometry relative="1" as="geometry">
            <mxPoint x="634.37" y="758.92" as="sourcePoint" />
            <mxPoint x="194.37" y="744.42" as="targetPoint" />
            <Array as="points">
              <mxPoint x="522.37" y="759" />
              <mxPoint x="522.37" y="744" />
            </Array>
          </mxGeometry>
        </mxCell>
        <mxCell id="TG-YVFUVCGgv4PHO8d8e-277" style="edgeStyle=orthogonalEdgeStyle;rounded=0;orthogonalLoop=1;jettySize=auto;html=1;exitX=0.75;exitY=1;exitDx=0;exitDy=0;strokeWidth=2;strokeColor=#0aa7f5;endArrow=none;endFill=0;fillColor=#dae8fc;" edge="1" parent="1">
          <mxGeometry relative="1" as="geometry">
            <mxPoint x="632.37" y="774.74" as="sourcePoint" />
            <mxPoint x="192.37" y="787.24" as="targetPoint" />
            <Array as="points">
              <mxPoint x="632.37" y="771" />
              <mxPoint x="522.37" y="771" />
              <mxPoint x="522.37" y="787" />
            </Array>
          </mxGeometry>
        </mxCell>
        <mxCell id="TG-YVFUVCGgv4PHO8d8e-278" value="QBCA[13:0]_A" style="text;html=1;align=center;verticalAlign=middle;whiteSpace=wrap;rounded=0;fontColor=#0aa7f5;" vertex="1" parent="1">
          <mxGeometry x="534.37" y="766" width="98" height="30" as="geometry" />
        </mxCell>
        <mxCell id="TG-YVFUVCGgv4PHO8d8e-279" value="QACA[13:0]_A" style="text;html=1;align=center;verticalAlign=middle;whiteSpace=wrap;rounded=0;fontColor=#0aa7f5;" vertex="1" parent="1">
          <mxGeometry x="532.37" y="734" width="102" height="30" as="geometry" />
        </mxCell>
        <mxCell id="TG-YVFUVCGgv4PHO8d8e-280" value="&lt;font style=&quot;font-size: 14px;&quot; color=&quot;#ababab&quot;&gt;DQ&lt;/font&gt;&lt;div style=&quot;font-size: 14px;&quot;&gt;&lt;font color=&quot;#ababab&quot;&gt;x4&lt;/font&gt;&lt;/div&gt;" style="rounded=0;whiteSpace=wrap;html=1;strokeColor=#454744;fillColor=#464646;" vertex="1" parent="1">
          <mxGeometry x="134.37" y="770" width="60" height="80" as="geometry" />
        </mxCell>
        <mxCell id="TG-YVFUVCGgv4PHO8d8e-281" value="&lt;font style=&quot;font-size: 14px;&quot; color=&quot;#ababab&quot;&gt;DQ&lt;/font&gt;&lt;div style=&quot;font-size: 14px;&quot;&gt;&lt;font color=&quot;#ababab&quot;&gt;x4&lt;/font&gt;&lt;/div&gt;" style="rounded=0;whiteSpace=wrap;html=1;strokeColor=#454744;fillColor=#464646;" vertex="1" parent="1">
          <mxGeometry x="214.37" y="770" width="60" height="80" as="geometry" />
        </mxCell>
        <mxCell id="TG-YVFUVCGgv4PHO8d8e-282" value="&lt;font style=&quot;font-size: 14px;&quot; color=&quot;#ababab&quot;&gt;DQ&lt;/font&gt;&lt;div style=&quot;font-size: 14px;&quot;&gt;&lt;font color=&quot;#ababab&quot;&gt;x4&lt;/font&gt;&lt;/div&gt;" style="rounded=0;whiteSpace=wrap;html=1;strokeColor=#454744;fillColor=#464646;" vertex="1" parent="1">
          <mxGeometry x="294.37" y="770" width="60" height="80" as="geometry" />
        </mxCell>
        <mxCell id="TG-YVFUVCGgv4PHO8d8e-283" value="&lt;font style=&quot;font-size: 14px;&quot; color=&quot;#ababab&quot;&gt;DQ&lt;/font&gt;&lt;div style=&quot;font-size: 14px;&quot;&gt;&lt;font color=&quot;#ababab&quot;&gt;x4&lt;/font&gt;&lt;/div&gt;" style="rounded=0;whiteSpace=wrap;html=1;strokeColor=#454744;fillColor=#464646;" vertex="1" parent="1">
          <mxGeometry x="374.37" y="770" width="60" height="80" as="geometry" />
        </mxCell>
        <mxCell id="TG-YVFUVCGgv4PHO8d8e-284" value="&lt;font style=&quot;font-size: 14px;&quot; color=&quot;#ababab&quot;&gt;ECC&lt;/font&gt;&lt;div style=&quot;font-size: 14px;&quot;&gt;&lt;font color=&quot;#ababab&quot;&gt;x4&lt;/font&gt;&lt;/div&gt;" style="rounded=0;whiteSpace=wrap;html=1;strokeColor=#454744;fillColor=#464646;" vertex="1" parent="1">
          <mxGeometry x="454.37" y="770" width="60" height="80" as="geometry" />
        </mxCell>
        <mxCell id="TG-YVFUVCGgv4PHO8d8e-285" value="&lt;font color=&quot;#ababab&quot; style=&quot;font-size: 14px;&quot;&gt;DQ&lt;/font&gt;&lt;div style=&quot;font-size: 14px;&quot;&gt;&lt;font color=&quot;#ababab&quot; style=&quot;font-size: 14px;&quot;&gt;x4&lt;/font&gt;&lt;/div&gt;" style="rounded=0;whiteSpace=wrap;html=1;strokeColor=#454744;fillColor=#464646;" vertex="1" parent="1">
          <mxGeometry x="134.37" y="678" width="60" height="80" as="geometry" />
        </mxCell>
        <mxCell id="TG-YVFUVCGgv4PHO8d8e-286" value="&lt;font style=&quot;font-size: 14px;&quot; color=&quot;#ababab&quot;&gt;DQ&lt;/font&gt;&lt;div style=&quot;font-size: 14px;&quot;&gt;&lt;font color=&quot;#ababab&quot;&gt;x4&lt;/font&gt;&lt;/div&gt;" style="rounded=0;whiteSpace=wrap;html=1;strokeColor=#454744;fillColor=#464646;" vertex="1" parent="1">
          <mxGeometry x="214.37" y="678" width="60" height="80" as="geometry" />
        </mxCell>
        <mxCell id="TG-YVFUVCGgv4PHO8d8e-287" value="&lt;font style=&quot;font-size: 14px;&quot; color=&quot;#ababab&quot;&gt;DQ&lt;/font&gt;&lt;div style=&quot;font-size: 14px;&quot;&gt;&lt;font color=&quot;#ababab&quot;&gt;x4&lt;/font&gt;&lt;/div&gt;" style="rounded=0;whiteSpace=wrap;html=1;strokeColor=#454744;fillColor=#464646;" vertex="1" parent="1">
          <mxGeometry x="294.37" y="678" width="60" height="80" as="geometry" />
        </mxCell>
        <mxCell id="TG-YVFUVCGgv4PHO8d8e-288" value="&lt;font style=&quot;font-size: 14px;&quot; color=&quot;#ababab&quot;&gt;DQ&lt;/font&gt;&lt;div style=&quot;font-size: 14px;&quot;&gt;&lt;font color=&quot;#ababab&quot;&gt;x4&lt;/font&gt;&lt;/div&gt;" style="rounded=0;whiteSpace=wrap;html=1;strokeColor=#454744;fillColor=#464646;" vertex="1" parent="1">
          <mxGeometry x="374.37" y="678" width="60" height="80" as="geometry" />
        </mxCell>
        <mxCell id="TG-YVFUVCGgv4PHO8d8e-289" value="&lt;font style=&quot;font-size: 14px;&quot; color=&quot;#ababab&quot;&gt;ECC&lt;/font&gt;&lt;div style=&quot;font-size: 14px;&quot;&gt;&lt;font color=&quot;#ababab&quot;&gt;x4&lt;/font&gt;&lt;/div&gt;" style="rounded=0;whiteSpace=wrap;html=1;strokeColor=#454744;fillColor=#464646;" vertex="1" parent="1">
          <mxGeometry x="454.37" y="678" width="60" height="80" as="geometry" />
        </mxCell>
        <mxCell id="TG-YVFUVCGgv4PHO8d8e-290" style="edgeStyle=orthogonalEdgeStyle;rounded=0;orthogonalLoop=1;jettySize=auto;html=1;exitX=0.25;exitY=0;exitDx=0;exitDy=0;strokeWidth=2;strokeColor=#0a2ea6;endArrow=none;endFill=0;fillColor=#d5e8d4;fontColor=#0a2ea6;" edge="1" parent="1">
          <mxGeometry relative="1" as="geometry">
            <mxPoint x="834.37" y="237" as="sourcePoint" />
            <mxPoint x="1275.3700000000001" y="222.5" as="targetPoint" />
            <Array as="points">
              <mxPoint x="934.37" y="237" />
              <mxPoint x="934.37" y="222" />
            </Array>
          </mxGeometry>
        </mxCell>
        <mxCell id="TG-YVFUVCGgv4PHO8d8e-291" value="QBCA[13:0]_B" style="text;html=1;align=center;verticalAlign=middle;whiteSpace=wrap;rounded=0;fontColor=#0a2ea6;" vertex="1" parent="1">
          <mxGeometry x="842.87" y="213" width="81.5" height="30" as="geometry" />
        </mxCell>
        <mxCell id="TG-YVFUVCGgv4PHO8d8e-292" style="edgeStyle=orthogonalEdgeStyle;rounded=0;orthogonalLoop=1;jettySize=auto;html=1;exitX=0.25;exitY=0;exitDx=0;exitDy=0;strokeWidth=2;strokeColor=#0a2ea6;endArrow=none;endFill=0;entryX=0;entryY=0.5;entryDx=0;entryDy=0;fillColor=#d5e8d4;fontColor=#0a2ea6;" edge="1" parent="1">
          <mxGeometry relative="1" as="geometry">
            <mxPoint x="834.37" y="255" as="sourcePoint" />
            <mxPoint x="1275.3700000000001" y="268" as="targetPoint" />
            <Array as="points">
              <mxPoint x="834.37" y="250" />
              <mxPoint x="934.37" y="250" />
              <mxPoint x="934.37" y="268" />
            </Array>
          </mxGeometry>
        </mxCell>
        <mxCell id="TG-YVFUVCGgv4PHO8d8e-293" value="QACA[13:0]_B" style="text;html=1;align=center;verticalAlign=middle;whiteSpace=wrap;rounded=0;fontColor=#0a2ea6;" vertex="1" parent="1">
          <mxGeometry x="844.37" y="245" width="80" height="30" as="geometry" />
        </mxCell>
        <mxCell id="TG-YVFUVCGgv4PHO8d8e-294" style="edgeStyle=orthogonalEdgeStyle;rounded=0;orthogonalLoop=1;jettySize=auto;html=1;exitX=0.25;exitY=0;exitDx=0;exitDy=0;strokeWidth=2;strokeColor=#0a2ea6;endArrow=none;endFill=0;fillColor=#d5e8d4;fontColor=#0a2ea6;" edge="1" parent="1">
          <mxGeometry relative="1" as="geometry">
            <mxPoint x="834.87" y="758" as="sourcePoint" />
            <mxPoint x="1275.8700000000001" y="743.5" as="targetPoint" />
            <Array as="points">
              <mxPoint x="934.87" y="758" />
              <mxPoint x="934.87" y="743" />
            </Array>
          </mxGeometry>
        </mxCell>
        <mxCell id="TG-YVFUVCGgv4PHO8d8e-295" value="QACA[13:0]_B" style="text;html=1;align=center;verticalAlign=middle;whiteSpace=wrap;rounded=0;fontColor=#0a2ea6;" vertex="1" parent="1">
          <mxGeometry x="843.37" y="734" width="81.5" height="30" as="geometry" />
        </mxCell>
        <mxCell id="TG-YVFUVCGgv4PHO8d8e-296" style="edgeStyle=orthogonalEdgeStyle;rounded=0;orthogonalLoop=1;jettySize=auto;html=1;exitX=0.25;exitY=0;exitDx=0;exitDy=0;strokeWidth=2;strokeColor=#0a2ea6;endArrow=none;endFill=0;entryX=0;entryY=0.5;entryDx=0;entryDy=0;fillColor=#d5e8d4;fontColor=#0a2ea6;" edge="1" parent="1">
          <mxGeometry relative="1" as="geometry">
            <mxPoint x="834.87" y="776" as="sourcePoint" />
            <mxPoint x="1275.8700000000001" y="789" as="targetPoint" />
            <Array as="points">
              <mxPoint x="834.87" y="771" />
              <mxPoint x="934.87" y="771" />
              <mxPoint x="934.87" y="789" />
            </Array>
          </mxGeometry>
        </mxCell>
        <mxCell id="TG-YVFUVCGgv4PHO8d8e-297" value="QBCA[13:0]_B" style="text;html=1;align=center;verticalAlign=middle;whiteSpace=wrap;rounded=0;fontColor=#0a2ea6;" vertex="1" parent="1">
          <mxGeometry x="844.87" y="766" width="80" height="30" as="geometry" />
        </mxCell>
        <mxCell id="TG-YVFUVCGgv4PHO8d8e-298" value="&lt;font style=&quot;font-size: 14px;&quot; color=&quot;#ababab&quot;&gt;ECC&lt;/font&gt;&lt;div style=&quot;font-size: 14px;&quot;&gt;&lt;font color=&quot;#ababab&quot;&gt;x4&lt;/font&gt;&lt;/div&gt;" style="rounded=0;whiteSpace=wrap;html=1;strokeColor=#454744;fillColor=#464646;" vertex="1" parent="1">
          <mxGeometry x="955.37" y="158" width="60" height="80" as="geometry" />
        </mxCell>
        <mxCell id="TG-YVFUVCGgv4PHO8d8e-299" value="&lt;font style=&quot;font-size: 14px;&quot; color=&quot;#ababab&quot;&gt;DQ&lt;/font&gt;&lt;div style=&quot;font-size: 14px;&quot;&gt;&lt;font color=&quot;#ababab&quot;&gt;x4&lt;/font&gt;&lt;/div&gt;" style="rounded=0;whiteSpace=wrap;html=1;strokeColor=#454744;fillColor=#464646;" vertex="1" parent="1">
          <mxGeometry x="1035.37" y="158" width="60" height="80" as="geometry" />
        </mxCell>
        <mxCell id="TG-YVFUVCGgv4PHO8d8e-300" value="&lt;font style=&quot;font-size: 14px;&quot; color=&quot;#ababab&quot;&gt;DQ&lt;/font&gt;&lt;div style=&quot;font-size: 14px;&quot;&gt;&lt;font color=&quot;#ababab&quot;&gt;x4&lt;/font&gt;&lt;/div&gt;" style="rounded=0;whiteSpace=wrap;html=1;strokeColor=#454744;fillColor=#464646;" vertex="1" parent="1">
          <mxGeometry x="1115.3700000000001" y="158" width="60" height="80" as="geometry" />
        </mxCell>
        <mxCell id="TG-YVFUVCGgv4PHO8d8e-301" value="&lt;font style=&quot;font-size: 14px;&quot; color=&quot;#ababab&quot;&gt;DQ&lt;/font&gt;&lt;div style=&quot;font-size: 14px;&quot;&gt;&lt;font color=&quot;#ababab&quot;&gt;x4&lt;/font&gt;&lt;/div&gt;" style="rounded=0;whiteSpace=wrap;html=1;strokeColor=#454744;fillColor=#464646;" vertex="1" parent="1">
          <mxGeometry x="1195.3700000000001" y="158" width="60" height="80" as="geometry" />
        </mxCell>
        <mxCell id="TG-YVFUVCGgv4PHO8d8e-302" value="&lt;font style=&quot;font-size: 14px;&quot; color=&quot;#ababab&quot;&gt;DQ&lt;/font&gt;&lt;div style=&quot;font-size: 14px;&quot;&gt;&lt;font color=&quot;#ababab&quot;&gt;x4&lt;/font&gt;&lt;/div&gt;" style="rounded=0;whiteSpace=wrap;html=1;strokeColor=#454744;fillColor=#464646;" vertex="1" parent="1">
          <mxGeometry x="1275.3700000000001" y="158" width="60" height="80" as="geometry" />
        </mxCell>
        <mxCell id="TG-YVFUVCGgv4PHO8d8e-303" value="&lt;font style=&quot;font-size: 14px;&quot; color=&quot;#ababab&quot;&gt;ECC&lt;/font&gt;&lt;div style=&quot;font-size: 14px;&quot;&gt;&lt;font color=&quot;#ababab&quot;&gt;x4&lt;/font&gt;&lt;/div&gt;" style="rounded=0;whiteSpace=wrap;html=1;strokeColor=#454744;fillColor=#464646;" vertex="1" parent="1">
          <mxGeometry x="955.37" y="250" width="60" height="80" as="geometry" />
        </mxCell>
        <mxCell id="TG-YVFUVCGgv4PHO8d8e-304" value="&lt;font style=&quot;font-size: 14px;&quot; color=&quot;#ababab&quot;&gt;DQ&lt;/font&gt;&lt;div style=&quot;font-size: 14px;&quot;&gt;&lt;font color=&quot;#ababab&quot;&gt;x4&lt;/font&gt;&lt;/div&gt;" style="rounded=0;whiteSpace=wrap;html=1;strokeColor=#454744;fillColor=#464646;" vertex="1" parent="1">
          <mxGeometry x="1035.37" y="250" width="60" height="80" as="geometry" />
        </mxCell>
        <mxCell id="TG-YVFUVCGgv4PHO8d8e-305" value="&lt;font style=&quot;font-size: 14px;&quot; color=&quot;#ababab&quot;&gt;DQ&lt;/font&gt;&lt;div style=&quot;font-size: 14px;&quot;&gt;&lt;font color=&quot;#ababab&quot;&gt;x4&lt;/font&gt;&lt;/div&gt;" style="rounded=0;whiteSpace=wrap;html=1;strokeColor=#454744;fillColor=#464646;" vertex="1" parent="1">
          <mxGeometry x="1115.3700000000001" y="250" width="60" height="80" as="geometry" />
        </mxCell>
        <mxCell id="TG-YVFUVCGgv4PHO8d8e-306" value="&lt;font style=&quot;font-size: 14px;&quot; color=&quot;#ababab&quot;&gt;DQ&lt;/font&gt;&lt;div style=&quot;font-size: 14px;&quot;&gt;&lt;font color=&quot;#ababab&quot;&gt;x4&lt;/font&gt;&lt;/div&gt;" style="rounded=0;whiteSpace=wrap;html=1;strokeColor=#454744;fillColor=#464646;" vertex="1" parent="1">
          <mxGeometry x="1195.3700000000001" y="250" width="60" height="80" as="geometry" />
        </mxCell>
        <mxCell id="TG-YVFUVCGgv4PHO8d8e-307" value="&lt;font style=&quot;font-size: 14px;&quot; color=&quot;#ababab&quot;&gt;DQ&lt;/font&gt;&lt;div style=&quot;font-size: 14px;&quot;&gt;&lt;font color=&quot;#ababab&quot;&gt;x4&lt;/font&gt;&lt;/div&gt;" style="rounded=0;whiteSpace=wrap;html=1;strokeColor=#454744;fillColor=#464646;" vertex="1" parent="1">
          <mxGeometry x="1275.3700000000001" y="250" width="60" height="80" as="geometry" />
        </mxCell>
        <mxCell id="TG-YVFUVCGgv4PHO8d8e-308" value="&lt;font style=&quot;font-size: 14px;&quot; color=&quot;#ababab&quot;&gt;ECC&lt;/font&gt;&lt;div style=&quot;font-size: 14px;&quot;&gt;&lt;font color=&quot;#ababab&quot;&gt;x4&lt;/font&gt;&lt;/div&gt;" style="rounded=0;whiteSpace=wrap;html=1;strokeColor=#454744;fillColor=#464646;" vertex="1" parent="1">
          <mxGeometry x="955.37" y="678" width="60" height="80" as="geometry" />
        </mxCell>
        <mxCell id="TG-YVFUVCGgv4PHO8d8e-309" value="&lt;font style=&quot;font-size: 14px;&quot; color=&quot;#ababab&quot;&gt;DQ&lt;/font&gt;&lt;div style=&quot;font-size: 14px;&quot;&gt;&lt;font color=&quot;#ababab&quot;&gt;x4&lt;/font&gt;&lt;/div&gt;" style="rounded=0;whiteSpace=wrap;html=1;strokeColor=#454744;fillColor=#464646;" vertex="1" parent="1">
          <mxGeometry x="1035.37" y="678" width="60" height="80" as="geometry" />
        </mxCell>
        <mxCell id="TG-YVFUVCGgv4PHO8d8e-310" value="&lt;font style=&quot;font-size: 14px;&quot; color=&quot;#ababab&quot;&gt;DQ&lt;/font&gt;&lt;div style=&quot;font-size: 14px;&quot;&gt;&lt;font color=&quot;#ababab&quot;&gt;x4&lt;/font&gt;&lt;/div&gt;" style="rounded=0;whiteSpace=wrap;html=1;strokeColor=#454744;fillColor=#464646;" vertex="1" parent="1">
          <mxGeometry x="1115.3700000000001" y="678" width="60" height="80" as="geometry" />
        </mxCell>
        <mxCell id="TG-YVFUVCGgv4PHO8d8e-311" value="&lt;font style=&quot;font-size: 14px;&quot; color=&quot;#ababab&quot;&gt;DQ&lt;/font&gt;&lt;div style=&quot;font-size: 14px;&quot;&gt;&lt;font color=&quot;#ababab&quot;&gt;x4&lt;/font&gt;&lt;/div&gt;" style="rounded=0;whiteSpace=wrap;html=1;strokeColor=#454744;fillColor=#464646;" vertex="1" parent="1">
          <mxGeometry x="1195.3700000000001" y="678" width="60" height="80" as="geometry" />
        </mxCell>
        <mxCell id="TG-YVFUVCGgv4PHO8d8e-312" value="&lt;font style=&quot;font-size: 14px;&quot; color=&quot;#ababab&quot;&gt;DQ&lt;/font&gt;&lt;div style=&quot;font-size: 14px;&quot;&gt;&lt;font color=&quot;#ababab&quot;&gt;x4&lt;/font&gt;&lt;/div&gt;" style="rounded=0;whiteSpace=wrap;html=1;strokeColor=#454744;fillColor=#464646;" vertex="1" parent="1">
          <mxGeometry x="1275.3700000000001" y="678" width="60" height="80" as="geometry" />
        </mxCell>
        <mxCell id="TG-YVFUVCGgv4PHO8d8e-313" value="&lt;font style=&quot;font-size: 14px;&quot; color=&quot;#ababab&quot;&gt;ECC&lt;/font&gt;&lt;div style=&quot;font-size: 14px;&quot;&gt;&lt;font color=&quot;#ababab&quot;&gt;x4&lt;/font&gt;&lt;/div&gt;" style="rounded=0;whiteSpace=wrap;html=1;strokeColor=#454744;fillColor=#464646;" vertex="1" parent="1">
          <mxGeometry x="955.37" y="770" width="60" height="80" as="geometry" />
        </mxCell>
        <mxCell id="TG-YVFUVCGgv4PHO8d8e-314" value="&lt;font style=&quot;font-size: 14px;&quot; color=&quot;#ababab&quot;&gt;DQ&lt;/font&gt;&lt;div style=&quot;font-size: 14px;&quot;&gt;&lt;font color=&quot;#ababab&quot;&gt;x4&lt;/font&gt;&lt;/div&gt;" style="rounded=0;whiteSpace=wrap;html=1;strokeColor=#454744;fillColor=#464646;" vertex="1" parent="1">
          <mxGeometry x="1035.37" y="770" width="60" height="80" as="geometry" />
        </mxCell>
        <mxCell id="TG-YVFUVCGgv4PHO8d8e-315" value="&lt;font style=&quot;font-size: 14px;&quot; color=&quot;#ababab&quot;&gt;DQ&lt;/font&gt;&lt;div style=&quot;font-size: 14px;&quot;&gt;&lt;font color=&quot;#ababab&quot;&gt;x4&lt;/font&gt;&lt;/div&gt;" style="rounded=0;whiteSpace=wrap;html=1;strokeColor=#454744;fillColor=#464646;" vertex="1" parent="1">
          <mxGeometry x="1115.3700000000001" y="770" width="60" height="80" as="geometry" />
        </mxCell>
        <mxCell id="TG-YVFUVCGgv4PHO8d8e-316" value="&lt;font style=&quot;font-size: 14px;&quot; color=&quot;#ababab&quot;&gt;DQ&lt;/font&gt;&lt;div style=&quot;font-size: 14px;&quot;&gt;&lt;font color=&quot;#ababab&quot;&gt;x4&lt;/font&gt;&lt;/div&gt;" style="rounded=0;whiteSpace=wrap;html=1;strokeColor=#454744;fillColor=#464646;" vertex="1" parent="1">
          <mxGeometry x="1195.3700000000001" y="770" width="60" height="80" as="geometry" />
        </mxCell>
        <mxCell id="TG-YVFUVCGgv4PHO8d8e-317" value="&lt;font style=&quot;font-size: 14px;&quot; color=&quot;#ababab&quot;&gt;DQ&lt;/font&gt;&lt;div style=&quot;font-size: 14px;&quot;&gt;&lt;font color=&quot;#ababab&quot;&gt;x4&lt;/font&gt;&lt;/div&gt;" style="rounded=0;whiteSpace=wrap;html=1;strokeColor=#454744;fillColor=#464646;" vertex="1" parent="1">
          <mxGeometry x="1275.3700000000001" y="770" width="60" height="80" as="geometry" />
        </mxCell>
        <mxCell id="TG-YVFUVCGgv4PHO8d8e-318" value="(c) shingaridavesh@gmail.com" style="text;html=1;align=center;verticalAlign=middle;whiteSpace=wrap;rounded=0;fontSize=36;fontColor=#f2eeee;rotation=0;textOpacity=10;" vertex="1" parent="1">
          <mxGeometry x="294.37" y="640" width="870" height="30" as="geometry" />
        </mxCell>
        <mxCell id="TG-YVFUVCGgv4PHO8d8e-319" value="(c) shingaridavesh@gmail.com" style="text;html=1;align=center;verticalAlign=middle;whiteSpace=wrap;rounded=0;fontSize=36;fontColor=#f2eeee;rotation=0;textOpacity=10;" vertex="1" parent="1">
          <mxGeometry x="294.37" y="330" width="870" height="30" as="geometry" />
        </mxCell>
        <mxCell id="TG-YVFUVCGgv4PHO8d8e-342" style="edgeStyle=orthogonalEdgeStyle;rounded=0;orthogonalLoop=1;jettySize=auto;html=1;fillColor=#ffe6cc;strokeColor=#d79b00;strokeWidth=3;" edge="1" parent="1">
          <mxGeometry relative="1" as="geometry">
            <mxPoint x="-50" y="1100" as="targetPoint" />
            <mxPoint x="47" y="1100" as="sourcePoint" />
          </mxGeometry>
        </mxCell>
        <mxCell id="TG-YVFUVCGgv4PHO8d8e-328" value="&lt;font style=&quot;font-size: 14px;&quot; color=&quot;#ababab&quot;&gt;&lt;b&gt;RCD&lt;/b&gt;&lt;/font&gt;" style="rounded=0;whiteSpace=wrap;html=1;strokeColor=#454744;fillColor=#464646;direction=south;" vertex="1" parent="1">
          <mxGeometry x="47" y="1080" width="200" height="130" as="geometry" />
        </mxCell>
        <mxCell id="TG-YVFUVCGgv4PHO8d8e-329" value="" style="endArrow=classic;html=1;rounded=0;strokeWidth=5;fillColor=#ffe6cc;strokeColor=#d79b00;" edge="1" parent="1">
          <mxGeometry width="50" height="50" relative="1" as="geometry">
            <mxPoint x="66.66000000000003" y="1340" as="sourcePoint" />
            <mxPoint x="66.66000000000003" y="1210" as="targetPoint" />
          </mxGeometry>
        </mxCell>
        <mxCell id="TG-YVFUVCGgv4PHO8d8e-330" value="" style="endArrow=classic;html=1;rounded=0;strokeWidth=4;fillColor=#dae8fc;strokeColor=#6c8ebf;textOpacity=50;opacity=50;" edge="1" parent="1">
          <mxGeometry width="50" height="50" relative="1" as="geometry">
            <mxPoint x="163" y="1340" as="sourcePoint" />
            <mxPoint x="163" y="1210" as="targetPoint" />
          </mxGeometry>
        </mxCell>
        <mxCell id="TG-YVFUVCGgv4PHO8d8e-331" value="DCK" style="text;html=1;align=center;verticalAlign=middle;whiteSpace=wrap;rounded=0;fontColor=#d79b00;fontStyle=1;fontSize=14;" vertex="1" parent="1">
          <mxGeometry x="52" y="1340" width="35" height="20" as="geometry" />
        </mxCell>
        <mxCell id="TG-YVFUVCGgv4PHO8d8e-332" value="" style="endArrow=classic;html=1;rounded=0;exitX=1;exitY=1;exitDx=0;exitDy=0;strokeWidth=4;fillColor=#f8cecc;strokeColor=#b85450;textOpacity=50;opacity=50;" edge="1" parent="1">
          <mxGeometry width="50" height="50" relative="1" as="geometry">
            <mxPoint x="188" y="1370" as="sourcePoint" />
            <mxPoint x="188" y="1210" as="targetPoint" />
          </mxGeometry>
        </mxCell>
        <mxCell id="TG-YVFUVCGgv4PHO8d8e-333" value="" style="endArrow=classic;html=1;rounded=0;strokeWidth=4;fillColor=#d5e8d4;strokeColor=#82b366;textOpacity=50;opacity=50;" edge="1" parent="1">
          <mxGeometry width="50" height="50" relative="1" as="geometry">
            <mxPoint x="212" y="1400" as="sourcePoint" />
            <mxPoint x="212.30999999999995" y="1210" as="targetPoint" />
          </mxGeometry>
        </mxCell>
        <mxCell id="TG-YVFUVCGgv4PHO8d8e-334" value="" style="endArrow=classic;html=1;rounded=0;strokeWidth=4;fillColor=#e1d5e7;strokeColor=#9673a6;textOpacity=50;opacity=50;" edge="1" parent="1">
          <mxGeometry width="50" height="50" relative="1" as="geometry">
            <mxPoint x="232" y="1440" as="sourcePoint" />
            <mxPoint x="232.30999999999995" y="1210" as="targetPoint" />
          </mxGeometry>
        </mxCell>
        <mxCell id="TG-YVFUVCGgv4PHO8d8e-335" value="&lt;span style=&quot;font-family: Helvetica; font-size: 14px; font-style: normal; font-variant-ligatures: normal; font-variant-caps: normal; font-weight: 700; letter-spacing: normal; orphans: 2; text-align: center; text-indent: 0px; text-transform: none; widows: 2; word-spacing: 0px; -webkit-text-stroke-width: 0px; white-space: normal; background-color: rgb(251, 251, 251); text-decoration-thickness: initial; text-decoration-style: initial; text-decoration-color: initial; float: none; display: inline !important;&quot;&gt;DCS0_A_n&lt;/span&gt;" style="text;whiteSpace=wrap;html=1;fontColor=#6c8ebf;textOpacity=50;opacity=50;" vertex="1" parent="1">
          <mxGeometry x="110" y="1340" width="80" height="30" as="geometry" />
        </mxCell>
        <mxCell id="TG-YVFUVCGgv4PHO8d8e-336" value="&lt;span style=&quot;color: rgb(184, 84, 80); font-family: Helvetica; font-size: 14px; font-style: normal; font-variant-ligatures: normal; font-variant-caps: normal; font-weight: 700; letter-spacing: normal; orphans: 2; text-align: center; text-indent: 0px; text-transform: none; widows: 2; word-spacing: 0px; -webkit-text-stroke-width: 0px; white-space: normal; background-color: rgb(251, 251, 251); text-decoration-thickness: initial; text-decoration-style: initial; text-decoration-color: initial; display: inline !important; float: none;&quot;&gt;DCS1_A_n&lt;/span&gt;" style="text;whiteSpace=wrap;html=1;textOpacity=50;opacity=50;" vertex="1" parent="1">
          <mxGeometry x="133" y="1370" width="80" height="20" as="geometry" />
        </mxCell>
        <mxCell id="TG-YVFUVCGgv4PHO8d8e-337" value="&lt;span style=&quot;font-family: Helvetica; font-size: 14px; font-style: normal; font-variant-ligatures: normal; font-variant-caps: normal; font-weight: 700; letter-spacing: normal; orphans: 2; text-align: center; text-indent: 0px; text-transform: none; widows: 2; word-spacing: 0px; -webkit-text-stroke-width: 0px; white-space: normal; background-color: rgb(251, 251, 251); text-decoration-thickness: initial; text-decoration-style: initial; text-decoration-color: initial; float: none; display: inline !important;&quot;&gt;DCS0_B_n&lt;/span&gt;" style="text;whiteSpace=wrap;html=1;fontColor=#82b366;textOpacity=50;opacity=50;" vertex="1" parent="1">
          <mxGeometry x="156" y="1400" width="80" height="30" as="geometry" />
        </mxCell>
        <mxCell id="TG-YVFUVCGgv4PHO8d8e-338" value="" style="endArrow=classic;html=1;rounded=0;strokeWidth=4;fillColor=#ffe6cc;strokeColor=#0aa7f5;textOpacity=50;opacity=50;" edge="1" parent="1">
          <mxGeometry width="50" height="50" relative="1" as="geometry">
            <mxPoint x="62" y="1430" as="sourcePoint" />
            <mxPoint x="92" y="1210" as="targetPoint" />
            <Array as="points">
              <mxPoint x="62" y="1410" />
              <mxPoint x="92" y="1410" />
              <mxPoint x="92" y="1320" />
            </Array>
          </mxGeometry>
        </mxCell>
        <mxCell id="TG-YVFUVCGgv4PHO8d8e-339" value="" style="endArrow=classic;html=1;rounded=0;strokeWidth=4;fillColor=#fff2cc;strokeColor=#082fa6;textOpacity=50;opacity=50;" edge="1" parent="1">
          <mxGeometry width="50" height="50" relative="1" as="geometry">
            <mxPoint x="132" y="1430" as="sourcePoint" />
            <mxPoint x="108" y="1210" as="targetPoint" />
            <Array as="points">
              <mxPoint x="132" y="1410" />
              <mxPoint x="108" y="1410" />
              <mxPoint x="108" y="1320" />
            </Array>
          </mxGeometry>
        </mxCell>
        <mxCell id="TG-YVFUVCGgv4PHO8d8e-340" value="&lt;span style=&quot;font-size: 14px; font-weight: 700; text-align: center;&quot;&gt;&lt;font&gt;DCA[6:0]_A&lt;/font&gt;&lt;/span&gt;" style="text;whiteSpace=wrap;html=1;fontColor=#0aa7f5;fontSize=12;textOpacity=50;opacity=50;" vertex="1" parent="1">
          <mxGeometry x="22" y="1430" width="80" height="30" as="geometry" />
        </mxCell>
        <mxCell id="TG-YVFUVCGgv4PHO8d8e-341" value="&lt;span style=&quot;font-size: 14px; font-weight: 700; text-align: center;&quot;&gt;DCA[6:0]_B&lt;/span&gt;" style="text;whiteSpace=wrap;html=1;fontColor=#0a2ea6;fontSize=12;fontFamily=Helvetica;textOpacity=50;opacity=50;" vertex="1" parent="1">
          <mxGeometry x="102" y="1430" width="80" height="30" as="geometry" />
        </mxCell>
        <mxCell id="TG-YVFUVCGgv4PHO8d8e-344" style="edgeStyle=orthogonalEdgeStyle;rounded=0;orthogonalLoop=1;jettySize=auto;html=1;fillColor=#ffe6cc;strokeColor=#d79b00;strokeWidth=3;" edge="1" parent="1">
          <mxGeometry relative="1" as="geometry">
            <mxPoint x="-50" y="1130" as="targetPoint" />
            <mxPoint x="47" y="1130" as="sourcePoint" />
          </mxGeometry>
        </mxCell>
        <mxCell id="TG-YVFUVCGgv4PHO8d8e-345" style="edgeStyle=orthogonalEdgeStyle;rounded=0;orthogonalLoop=1;jettySize=auto;html=1;fillColor=#ffe6cc;strokeColor=#d79b00;strokeWidth=3;" edge="1" parent="1">
          <mxGeometry relative="1" as="geometry">
            <mxPoint x="-50" y="1160" as="targetPoint" />
            <mxPoint x="47" y="1160" as="sourcePoint" />
          </mxGeometry>
        </mxCell>
        <mxCell id="TG-YVFUVCGgv4PHO8d8e-346" style="edgeStyle=orthogonalEdgeStyle;rounded=0;orthogonalLoop=1;jettySize=auto;html=1;fillColor=#ffe6cc;strokeColor=#d79b00;strokeWidth=3;" edge="1" parent="1">
          <mxGeometry relative="1" as="geometry">
            <mxPoint x="-50.5" y="1190" as="targetPoint" />
            <mxPoint x="46.5" y="1190" as="sourcePoint" />
          </mxGeometry>
        </mxCell>
        <mxCell id="TG-YVFUVCGgv4PHO8d8e-347" value="QDCK_A_t/c" style="text;html=1;align=center;verticalAlign=middle;whiteSpace=wrap;rounded=0;fontColor=#FFB570;fontStyle=1;fontSize=14;" vertex="1" parent="1">
          <mxGeometry x="-142" y="1090" width="92" height="20" as="geometry" />
        </mxCell>
        <mxCell id="TG-YVFUVCGgv4PHO8d8e-348" value="QBCK_A_t/c" style="text;html=1;align=center;verticalAlign=middle;whiteSpace=wrap;rounded=0;fontColor=#FFB570;fontStyle=1;fontSize=14;" vertex="1" parent="1">
          <mxGeometry x="-140" y="1120" width="92" height="20" as="geometry" />
        </mxCell>
        <mxCell id="TG-YVFUVCGgv4PHO8d8e-349" value="QACK_A_t/c" style="text;html=1;align=center;verticalAlign=middle;whiteSpace=wrap;rounded=0;fontColor=#FFB570;fontStyle=1;fontSize=14;" vertex="1" parent="1">
          <mxGeometry x="-140" y="1150" width="92" height="20" as="geometry" />
        </mxCell>
        <mxCell id="TG-YVFUVCGgv4PHO8d8e-350" value="QCCK_A_t/c" style="text;html=1;align=center;verticalAlign=middle;whiteSpace=wrap;rounded=0;fontColor=#FFB570;fontStyle=1;fontSize=14;" vertex="1" parent="1">
          <mxGeometry x="-142" y="1180" width="92" height="20" as="geometry" />
        </mxCell>
        <mxCell id="TG-YVFUVCGgv4PHO8d8e-351" style="edgeStyle=orthogonalEdgeStyle;rounded=0;orthogonalLoop=1;jettySize=auto;html=1;fillColor=#ffe6cc;strokeColor=#d79b00;strokeWidth=3;endArrow=none;startFill=1;startArrow=classic;" edge="1" parent="1">
          <mxGeometry relative="1" as="geometry">
            <mxPoint x="248" y="1100" as="targetPoint" />
            <mxPoint x="345" y="1100" as="sourcePoint" />
          </mxGeometry>
        </mxCell>
        <mxCell id="TG-YVFUVCGgv4PHO8d8e-352" style="edgeStyle=orthogonalEdgeStyle;rounded=0;orthogonalLoop=1;jettySize=auto;html=1;fillColor=#ffe6cc;strokeColor=#d79b00;strokeWidth=3;endArrow=none;startFill=1;startArrow=classic;" edge="1" parent="1">
          <mxGeometry relative="1" as="geometry">
            <mxPoint x="248" y="1130" as="targetPoint" />
            <mxPoint x="345" y="1130" as="sourcePoint" />
          </mxGeometry>
        </mxCell>
        <mxCell id="TG-YVFUVCGgv4PHO8d8e-353" style="edgeStyle=orthogonalEdgeStyle;rounded=0;orthogonalLoop=1;jettySize=auto;html=1;fillColor=#ffe6cc;strokeColor=#d79b00;strokeWidth=3;endArrow=none;startFill=1;startArrow=classic;" edge="1" parent="1">
          <mxGeometry relative="1" as="geometry">
            <mxPoint x="248" y="1160" as="targetPoint" />
            <mxPoint x="345" y="1160" as="sourcePoint" />
          </mxGeometry>
        </mxCell>
        <mxCell id="TG-YVFUVCGgv4PHO8d8e-354" style="edgeStyle=orthogonalEdgeStyle;rounded=0;orthogonalLoop=1;jettySize=auto;html=1;fillColor=#ffe6cc;strokeColor=#d79b00;strokeWidth=3;endArrow=none;startFill=1;startArrow=classic;" edge="1" parent="1">
          <mxGeometry relative="1" as="geometry">
            <mxPoint x="247.5" y="1190" as="targetPoint" />
            <mxPoint x="344.5" y="1190" as="sourcePoint" />
          </mxGeometry>
        </mxCell>
        <mxCell id="TG-YVFUVCGgv4PHO8d8e-355" value="QDCK_B_t/c" style="text;html=1;align=center;verticalAlign=middle;whiteSpace=wrap;rounded=0;fontColor=#FFB570;fontStyle=1;fontSize=14;" vertex="1" parent="1">
          <mxGeometry x="344" y="1090" width="92" height="20" as="geometry" />
        </mxCell>
        <mxCell id="TG-YVFUVCGgv4PHO8d8e-356" value="QBCK_B_t/c" style="text;html=1;align=center;verticalAlign=middle;whiteSpace=wrap;rounded=0;fontColor=#FFB570;fontStyle=1;fontSize=14;" vertex="1" parent="1">
          <mxGeometry x="346" y="1120" width="92" height="20" as="geometry" />
        </mxCell>
        <mxCell id="TG-YVFUVCGgv4PHO8d8e-357" value="QACK_B_t/c" style="text;html=1;align=center;verticalAlign=middle;whiteSpace=wrap;rounded=0;fontColor=#FFB570;fontStyle=1;fontSize=14;" vertex="1" parent="1">
          <mxGeometry x="346" y="1150" width="92" height="20" as="geometry" />
        </mxCell>
        <mxCell id="TG-YVFUVCGgv4PHO8d8e-358" value="QCCK_B_t/c" style="text;html=1;align=center;verticalAlign=middle;whiteSpace=wrap;rounded=0;fontColor=#FFB570;fontStyle=1;fontSize=14;" vertex="1" parent="1">
          <mxGeometry x="344" y="1180" width="92" height="20" as="geometry" />
        </mxCell>
        <mxCell id="TG-YVFUVCGgv4PHO8d8e-359" style="edgeStyle=orthogonalEdgeStyle;rounded=0;orthogonalLoop=1;jettySize=auto;html=1;fillColor=#ffe6cc;strokeColor=light-dark(#b85450, #996500);strokeWidth=3;" edge="1" parent="1">
          <mxGeometry relative="1" as="geometry">
            <mxPoint x="551.5" y="1100" as="targetPoint" />
            <mxPoint x="648.5" y="1100" as="sourcePoint" />
          </mxGeometry>
        </mxCell>
        <mxCell id="TG-YVFUVCGgv4PHO8d8e-360" value="&lt;font style=&quot;font-size: 14px;&quot; color=&quot;#ababab&quot;&gt;&lt;b&gt;RCD&lt;/b&gt;&lt;/font&gt;" style="rounded=0;whiteSpace=wrap;html=1;strokeColor=#454744;fillColor=#464646;direction=south;" vertex="1" parent="1">
          <mxGeometry x="648.5" y="1080" width="200" height="130" as="geometry" />
        </mxCell>
        <mxCell id="TG-YVFUVCGgv4PHO8d8e-361" value="" style="endArrow=classic;html=1;rounded=0;strokeWidth=4;fillColor=#ffe6cc;strokeColor=#d79b00;opacity=50;" edge="1" parent="1">
          <mxGeometry width="50" height="50" relative="1" as="geometry">
            <mxPoint x="668.1600000000001" y="1340" as="sourcePoint" />
            <mxPoint x="668.1600000000001" y="1210" as="targetPoint" />
          </mxGeometry>
        </mxCell>
        <mxCell id="TG-YVFUVCGgv4PHO8d8e-362" value="" style="endArrow=classic;html=1;rounded=0;strokeWidth=4;fillColor=#dae8fc;strokeColor=#6c8ebf;" edge="1" parent="1">
          <mxGeometry width="50" height="50" relative="1" as="geometry">
            <mxPoint x="764.5" y="1340" as="sourcePoint" />
            <mxPoint x="764.5" y="1210" as="targetPoint" />
          </mxGeometry>
        </mxCell>
        <mxCell id="TG-YVFUVCGgv4PHO8d8e-363" value="DCK" style="text;html=1;align=center;verticalAlign=middle;whiteSpace=wrap;rounded=0;fontColor=#d79b00;fontStyle=1;fontSize=14;textOpacity=50;" vertex="1" parent="1">
          <mxGeometry x="653.5" y="1340" width="35" height="20" as="geometry" />
        </mxCell>
        <mxCell id="TG-YVFUVCGgv4PHO8d8e-364" value="" style="endArrow=classic;html=1;rounded=0;exitX=1;exitY=1;exitDx=0;exitDy=0;strokeWidth=4;fillColor=#f8cecc;strokeColor=#b85450;" edge="1" parent="1">
          <mxGeometry width="50" height="50" relative="1" as="geometry">
            <mxPoint x="789.5" y="1370" as="sourcePoint" />
            <mxPoint x="789.5" y="1210" as="targetPoint" />
          </mxGeometry>
        </mxCell>
        <mxCell id="TG-YVFUVCGgv4PHO8d8e-365" value="" style="endArrow=classic;html=1;rounded=0;strokeWidth=4;fillColor=#d5e8d4;strokeColor=#82b366;" edge="1" parent="1">
          <mxGeometry width="50" height="50" relative="1" as="geometry">
            <mxPoint x="813.5" y="1400" as="sourcePoint" />
            <mxPoint x="813.81" y="1210" as="targetPoint" />
          </mxGeometry>
        </mxCell>
        <mxCell id="TG-YVFUVCGgv4PHO8d8e-366" value="" style="endArrow=classic;html=1;rounded=0;strokeWidth=4;fillColor=#e1d5e7;strokeColor=#9673a6;" edge="1" parent="1">
          <mxGeometry width="50" height="50" relative="1" as="geometry">
            <mxPoint x="833.5" y="1440" as="sourcePoint" />
            <mxPoint x="833.81" y="1210" as="targetPoint" />
          </mxGeometry>
        </mxCell>
        <mxCell id="TG-YVFUVCGgv4PHO8d8e-367" value="&lt;span style=&quot;font-family: Helvetica; font-size: 14px; font-style: normal; font-variant-ligatures: normal; font-variant-caps: normal; font-weight: 700; letter-spacing: normal; orphans: 2; text-align: center; text-indent: 0px; text-transform: none; widows: 2; word-spacing: 0px; -webkit-text-stroke-width: 0px; white-space: normal; background-color: rgb(251, 251, 251); text-decoration-thickness: initial; text-decoration-style: initial; text-decoration-color: initial; float: none; display: inline !important;&quot;&gt;DCS0_A_n&lt;/span&gt;" style="text;whiteSpace=wrap;html=1;fontColor=#6c8ebf;" vertex="1" parent="1">
          <mxGeometry x="711.5" y="1340" width="80" height="30" as="geometry" />
        </mxCell>
        <mxCell id="TG-YVFUVCGgv4PHO8d8e-368" value="&lt;span style=&quot;color: rgb(184, 84, 80); font-family: Helvetica; font-size: 14px; font-style: normal; font-variant-ligatures: normal; font-variant-caps: normal; font-weight: 700; letter-spacing: normal; orphans: 2; text-align: center; text-indent: 0px; text-transform: none; widows: 2; word-spacing: 0px; -webkit-text-stroke-width: 0px; white-space: normal; background-color: rgb(251, 251, 251); text-decoration-thickness: initial; text-decoration-style: initial; text-decoration-color: initial; display: inline !important; float: none;&quot;&gt;DCS1_A_n&lt;/span&gt;" style="text;whiteSpace=wrap;html=1;" vertex="1" parent="1">
          <mxGeometry x="734.5" y="1370" width="80" height="20" as="geometry" />
        </mxCell>
        <mxCell id="TG-YVFUVCGgv4PHO8d8e-369" value="&lt;span style=&quot;font-family: Helvetica; font-size: 14px; font-style: normal; font-variant-ligatures: normal; font-variant-caps: normal; font-weight: 700; letter-spacing: normal; orphans: 2; text-align: center; text-indent: 0px; text-transform: none; widows: 2; word-spacing: 0px; -webkit-text-stroke-width: 0px; white-space: normal; background-color: rgb(251, 251, 251); text-decoration-thickness: initial; text-decoration-style: initial; text-decoration-color: initial; float: none; display: inline !important;&quot;&gt;DCS0_B_n&lt;/span&gt;" style="text;whiteSpace=wrap;html=1;fontColor=#82b366;" vertex="1" parent="1">
          <mxGeometry x="757.5" y="1400" width="80" height="30" as="geometry" />
        </mxCell>
        <mxCell id="TG-YVFUVCGgv4PHO8d8e-370" value="" style="endArrow=classic;html=1;rounded=0;strokeWidth=4;fillColor=#ffe6cc;strokeColor=#0aa7f5;opacity=50;" edge="1" parent="1">
          <mxGeometry width="50" height="50" relative="1" as="geometry">
            <mxPoint x="663.5" y="1430" as="sourcePoint" />
            <mxPoint x="693.5" y="1210" as="targetPoint" />
            <Array as="points">
              <mxPoint x="663.5" y="1410" />
              <mxPoint x="693.5" y="1410" />
              <mxPoint x="693.5" y="1320" />
            </Array>
          </mxGeometry>
        </mxCell>
        <mxCell id="TG-YVFUVCGgv4PHO8d8e-371" value="" style="endArrow=classic;html=1;rounded=0;strokeWidth=4;fillColor=#fff2cc;strokeColor=#082fa6;opacity=50;" edge="1" parent="1">
          <mxGeometry width="50" height="50" relative="1" as="geometry">
            <mxPoint x="733.5" y="1430" as="sourcePoint" />
            <mxPoint x="709.5" y="1210" as="targetPoint" />
            <Array as="points">
              <mxPoint x="733.5" y="1410" />
              <mxPoint x="709.5" y="1410" />
              <mxPoint x="709.5" y="1320" />
            </Array>
          </mxGeometry>
        </mxCell>
        <mxCell id="TG-YVFUVCGgv4PHO8d8e-372" value="&lt;span style=&quot;font-size: 14px; font-weight: 700; text-align: center;&quot;&gt;&lt;font&gt;DCA[6:0]_A&lt;/font&gt;&lt;/span&gt;" style="text;whiteSpace=wrap;html=1;fontColor=#0aa7f5;fontSize=12;textOpacity=50;" vertex="1" parent="1">
          <mxGeometry x="623.5" y="1430" width="80" height="30" as="geometry" />
        </mxCell>
        <mxCell id="TG-YVFUVCGgv4PHO8d8e-373" value="&lt;span style=&quot;font-size: 14px; font-weight: 700; text-align: center;&quot;&gt;DCA[6:0]_B&lt;/span&gt;" style="text;whiteSpace=wrap;html=1;fontColor=#0a2ea6;fontSize=12;fontFamily=Helvetica;textOpacity=50;" vertex="1" parent="1">
          <mxGeometry x="703.5" y="1430" width="80" height="30" as="geometry" />
        </mxCell>
        <mxCell id="TG-YVFUVCGgv4PHO8d8e-374" style="edgeStyle=orthogonalEdgeStyle;rounded=0;orthogonalLoop=1;jettySize=auto;html=1;fillColor=#ffe6cc;strokeColor=light-dark(#6c8ebf, #996500);strokeWidth=3;" edge="1" parent="1">
          <mxGeometry relative="1" as="geometry">
            <mxPoint x="551.5" y="1130" as="targetPoint" />
            <mxPoint x="648.5" y="1130" as="sourcePoint" />
          </mxGeometry>
        </mxCell>
        <mxCell id="TG-YVFUVCGgv4PHO8d8e-375" style="edgeStyle=orthogonalEdgeStyle;rounded=0;orthogonalLoop=1;jettySize=auto;html=1;fillColor=#ffe6cc;strokeColor=light-dark(#6c8ebf, #996500);strokeWidth=3;" edge="1" parent="1">
          <mxGeometry relative="1" as="geometry">
            <mxPoint x="551.5" y="1160" as="targetPoint" />
            <mxPoint x="648.5" y="1160" as="sourcePoint" />
          </mxGeometry>
        </mxCell>
        <mxCell id="TG-YVFUVCGgv4PHO8d8e-376" style="edgeStyle=orthogonalEdgeStyle;rounded=0;orthogonalLoop=1;jettySize=auto;html=1;fillColor=#ffe6cc;strokeColor=light-dark(#b85450, #996500);strokeWidth=3;" edge="1" parent="1">
          <mxGeometry relative="1" as="geometry">
            <mxPoint x="551" y="1190" as="targetPoint" />
            <mxPoint x="648" y="1190" as="sourcePoint" />
          </mxGeometry>
        </mxCell>
        <mxCell id="TG-YVFUVCGgv4PHO8d8e-377" value="QBCS1_A" style="text;html=1;align=center;verticalAlign=middle;whiteSpace=wrap;rounded=0;fontColor=light-dark(#b85450, #7e3f03);fontStyle=1;fontSize=14;" vertex="1" parent="1">
          <mxGeometry x="459.5" y="1090" width="92" height="20" as="geometry" />
        </mxCell>
        <mxCell id="TG-YVFUVCGgv4PHO8d8e-378" value="QBCS0_A" style="text;html=1;align=center;verticalAlign=middle;whiteSpace=wrap;rounded=0;fontColor=light-dark(#6c8ebf, #7e3f03);fontStyle=1;fontSize=14;" vertex="1" parent="1">
          <mxGeometry x="461.5" y="1120" width="92" height="20" as="geometry" />
        </mxCell>
        <mxCell id="TG-YVFUVCGgv4PHO8d8e-379" value="QACS0_A" style="text;html=1;align=center;verticalAlign=middle;whiteSpace=wrap;rounded=0;fontColor=light-dark(#6c8ebf, #7e3f03);fontStyle=1;fontSize=14;" vertex="1" parent="1">
          <mxGeometry x="461.5" y="1150" width="92" height="20" as="geometry" />
        </mxCell>
        <mxCell id="TG-YVFUVCGgv4PHO8d8e-380" value="QACS1_A" style="text;html=1;align=center;verticalAlign=middle;whiteSpace=wrap;rounded=0;fontColor=light-dark(#b85450, #7e3f03);fontStyle=1;fontSize=14;" vertex="1" parent="1">
          <mxGeometry x="459.5" y="1180" width="92" height="20" as="geometry" />
        </mxCell>
        <mxCell id="TG-YVFUVCGgv4PHO8d8e-381" style="edgeStyle=orthogonalEdgeStyle;rounded=0;orthogonalLoop=1;jettySize=auto;html=1;fillColor=#e1d5e7;strokeColor=#9673a6;strokeWidth=3;endArrow=none;startFill=1;startArrow=classic;" edge="1" parent="1">
          <mxGeometry relative="1" as="geometry">
            <mxPoint x="849.5" y="1100" as="targetPoint" />
            <mxPoint x="946.5" y="1100" as="sourcePoint" />
          </mxGeometry>
        </mxCell>
        <mxCell id="TG-YVFUVCGgv4PHO8d8e-382" style="edgeStyle=orthogonalEdgeStyle;rounded=0;orthogonalLoop=1;jettySize=auto;html=1;fillColor=#d5e8d4;strokeColor=#82b366;strokeWidth=3;endArrow=none;startFill=1;startArrow=classic;" edge="1" parent="1">
          <mxGeometry relative="1" as="geometry">
            <mxPoint x="849.5" y="1130" as="targetPoint" />
            <mxPoint x="946.5" y="1130" as="sourcePoint" />
          </mxGeometry>
        </mxCell>
        <mxCell id="TG-YVFUVCGgv4PHO8d8e-383" style="edgeStyle=orthogonalEdgeStyle;rounded=0;orthogonalLoop=1;jettySize=auto;html=1;fillColor=#d5e8d4;strokeColor=#82b366;strokeWidth=3;endArrow=none;startFill=1;startArrow=classic;" edge="1" parent="1">
          <mxGeometry relative="1" as="geometry">
            <mxPoint x="849.5" y="1160" as="targetPoint" />
            <mxPoint x="946.5" y="1160" as="sourcePoint" />
          </mxGeometry>
        </mxCell>
        <mxCell id="TG-YVFUVCGgv4PHO8d8e-384" style="edgeStyle=orthogonalEdgeStyle;rounded=0;orthogonalLoop=1;jettySize=auto;html=1;fillColor=#e1d5e7;strokeColor=#9673a6;strokeWidth=3;endArrow=none;startFill=1;startArrow=classic;" edge="1" parent="1">
          <mxGeometry relative="1" as="geometry">
            <mxPoint x="849" y="1190" as="targetPoint" />
            <mxPoint x="946" y="1190" as="sourcePoint" />
          </mxGeometry>
        </mxCell>
        <mxCell id="TG-YVFUVCGgv4PHO8d8e-385" value="QBCS1_B" style="text;html=1;align=center;verticalAlign=middle;whiteSpace=wrap;rounded=0;fontColor=#A680B8;fontStyle=1;fontSize=14;" vertex="1" parent="1">
          <mxGeometry x="945.5" y="1090" width="92" height="20" as="geometry" />
        </mxCell>
        <mxCell id="TG-YVFUVCGgv4PHO8d8e-386" value="QBCS0_B" style="text;html=1;align=center;verticalAlign=middle;whiteSpace=wrap;rounded=0;fontColor=#97D077;fontStyle=1;fontSize=14;" vertex="1" parent="1">
          <mxGeometry x="947.5" y="1120" width="92" height="20" as="geometry" />
        </mxCell>
        <mxCell id="TG-YVFUVCGgv4PHO8d8e-387" value="QACS0_B" style="text;html=1;align=center;verticalAlign=middle;whiteSpace=wrap;rounded=0;fontColor=#97D077;fontStyle=1;fontSize=14;" vertex="1" parent="1">
          <mxGeometry x="947.5" y="1150" width="92" height="20" as="geometry" />
        </mxCell>
        <mxCell id="TG-YVFUVCGgv4PHO8d8e-388" value="QACS1_B" style="text;html=1;align=center;verticalAlign=middle;whiteSpace=wrap;rounded=0;fontColor=#A680B8;fontStyle=1;fontSize=14;" vertex="1" parent="1">
          <mxGeometry x="945.5" y="1180" width="92" height="20" as="geometry" />
        </mxCell>
        <mxCell id="TG-YVFUVCGgv4PHO8d8e-389" value="BACK - TOP DIE" style="text;html=1;align=center;verticalAlign=middle;whiteSpace=wrap;rounded=0;fontStyle=1;fontSize=19;" vertex="1" parent="1">
          <mxGeometry x="-360.74" y="1085" width="160" height="30" as="geometry" />
        </mxCell>
        <mxCell id="TG-YVFUVCGgv4PHO8d8e-390" value="FRONT - TOP DIE" style="text;html=1;align=center;verticalAlign=middle;whiteSpace=wrap;rounded=0;fontStyle=1;fontSize=19;" vertex="1" parent="1">
          <mxGeometry x="-360.74" y="1115" width="160" height="30" as="geometry" />
        </mxCell>
        <mxCell id="TG-YVFUVCGgv4PHO8d8e-391" value="FRONT - BOTTOM DIE" style="text;html=1;align=center;verticalAlign=middle;whiteSpace=wrap;rounded=0;fontStyle=1;fontSize=19;" vertex="1" parent="1">
          <mxGeometry x="-390.74" y="1145" width="220" height="30" as="geometry" />
        </mxCell>
        <mxCell id="TG-YVFUVCGgv4PHO8d8e-392" value="BACK - BOTTOM DIE" style="text;html=1;align=center;verticalAlign=middle;whiteSpace=wrap;rounded=0;fontStyle=1;fontSize=19;" vertex="1" parent="1">
          <mxGeometry x="-385.74" y="1175" width="210" height="30" as="geometry" />
        </mxCell>
        <mxCell id="TG-YVFUVCGgv4PHO8d8e-393" value="&lt;div&gt;&lt;span style=&quot;background-color: initial;&quot;&gt;DCS1_B_n&lt;/span&gt;&lt;br&gt;&lt;/div&gt;" style="text;html=1;align=center;verticalAlign=middle;whiteSpace=wrap;rounded=0;fontColor=#9673a6;fontStyle=1;fontSize=14;textOpacity=50;" vertex="1" parent="1">
          <mxGeometry x="190" y="1440" width="90" height="20" as="geometry" />
        </mxCell>
        <mxCell id="TG-YVFUVCGgv4PHO8d8e-394" value="&lt;div&gt;&lt;span style=&quot;background-color: initial;&quot;&gt;DCS1_B_n&lt;/span&gt;&lt;br&gt;&lt;/div&gt;" style="text;html=1;align=center;verticalAlign=middle;whiteSpace=wrap;rounded=0;fontColor=#9673a6;fontStyle=1;fontSize=14;" vertex="1" parent="1">
          <mxGeometry x="791.5" y="1440" width="90" height="20" as="geometry" />
        </mxCell>
        <mxCell id="TG-YVFUVCGgv4PHO8d8e-395" style="edgeStyle=orthogonalEdgeStyle;rounded=0;orthogonalLoop=1;jettySize=auto;html=1;fillColor=#1ba1e2;strokeColor=light-dark(#0aa7f5, #51afe7);strokeWidth=3;" edge="1" parent="1">
          <mxGeometry relative="1" as="geometry">
            <mxPoint x="1163.5" y="1100" as="targetPoint" />
            <mxPoint x="1229" y="1130" as="sourcePoint" />
            <Array as="points">
              <mxPoint x="1229" y="1100" />
            </Array>
          </mxGeometry>
        </mxCell>
        <mxCell id="TG-YVFUVCGgv4PHO8d8e-396" value="&lt;font style=&quot;font-size: 14px;&quot; color=&quot;#ababab&quot;&gt;&lt;b&gt;RCD&lt;/b&gt;&lt;/font&gt;" style="rounded=0;whiteSpace=wrap;html=1;strokeColor=#454744;fillColor=#464646;direction=south;" vertex="1" parent="1">
          <mxGeometry x="1260.5" y="1080" width="200" height="130" as="geometry" />
        </mxCell>
        <mxCell id="TG-YVFUVCGgv4PHO8d8e-397" value="" style="endArrow=classic;html=1;rounded=0;strokeWidth=4;fillColor=#ffe6cc;strokeColor=#d79b00;opacity=50;textOpacity=50;" edge="1" parent="1">
          <mxGeometry width="50" height="50" relative="1" as="geometry">
            <mxPoint x="1280.16" y="1340" as="sourcePoint" />
            <mxPoint x="1280.16" y="1210" as="targetPoint" />
          </mxGeometry>
        </mxCell>
        <mxCell id="TG-YVFUVCGgv4PHO8d8e-398" value="" style="endArrow=classic;html=1;rounded=0;strokeWidth=4;fillColor=#dae8fc;strokeColor=#6c8ebf;textOpacity=50;" edge="1" parent="1">
          <mxGeometry width="50" height="50" relative="1" as="geometry">
            <mxPoint x="1376.5" y="1340" as="sourcePoint" />
            <mxPoint x="1376.5" y="1210" as="targetPoint" />
          </mxGeometry>
        </mxCell>
        <mxCell id="TG-YVFUVCGgv4PHO8d8e-399" value="DCK" style="text;html=1;align=center;verticalAlign=middle;whiteSpace=wrap;rounded=0;fontColor=#d79b00;fontStyle=1;fontSize=14;textOpacity=50;" vertex="1" parent="1">
          <mxGeometry x="1265.5" y="1340" width="35" height="20" as="geometry" />
        </mxCell>
        <mxCell id="TG-YVFUVCGgv4PHO8d8e-400" value="" style="endArrow=classic;html=1;rounded=0;exitX=1;exitY=1;exitDx=0;exitDy=0;strokeWidth=4;fillColor=#f8cecc;strokeColor=#b85450;textOpacity=50;" edge="1" parent="1">
          <mxGeometry width="50" height="50" relative="1" as="geometry">
            <mxPoint x="1401.5" y="1370" as="sourcePoint" />
            <mxPoint x="1401.5" y="1210" as="targetPoint" />
          </mxGeometry>
        </mxCell>
        <mxCell id="TG-YVFUVCGgv4PHO8d8e-401" value="" style="endArrow=classic;html=1;rounded=0;strokeWidth=4;fillColor=#d5e8d4;strokeColor=#82b366;textOpacity=50;" edge="1" parent="1">
          <mxGeometry width="50" height="50" relative="1" as="geometry">
            <mxPoint x="1425.5" y="1400" as="sourcePoint" />
            <mxPoint x="1425.81" y="1210" as="targetPoint" />
          </mxGeometry>
        </mxCell>
        <mxCell id="TG-YVFUVCGgv4PHO8d8e-402" value="" style="endArrow=classic;html=1;rounded=0;strokeWidth=4;fillColor=#e1d5e7;strokeColor=#9673a6;textOpacity=50;" edge="1" parent="1">
          <mxGeometry width="50" height="50" relative="1" as="geometry">
            <mxPoint x="1445.5" y="1440" as="sourcePoint" />
            <mxPoint x="1445.81" y="1210" as="targetPoint" />
          </mxGeometry>
        </mxCell>
        <mxCell id="TG-YVFUVCGgv4PHO8d8e-403" value="&lt;span style=&quot;font-family: Helvetica; font-size: 14px; font-style: normal; font-variant-ligatures: normal; font-variant-caps: normal; font-weight: 700; letter-spacing: normal; orphans: 2; text-align: center; text-indent: 0px; text-transform: none; widows: 2; word-spacing: 0px; -webkit-text-stroke-width: 0px; white-space: normal; background-color: rgb(251, 251, 251); text-decoration-thickness: initial; text-decoration-style: initial; text-decoration-color: initial; float: none; display: inline !important;&quot;&gt;DCS0_A_n&lt;/span&gt;" style="text;whiteSpace=wrap;html=1;fontColor=#6c8ebf;textOpacity=50;" vertex="1" parent="1">
          <mxGeometry x="1323.5" y="1340" width="80" height="30" as="geometry" />
        </mxCell>
        <mxCell id="TG-YVFUVCGgv4PHO8d8e-404" value="&lt;span style=&quot;color: rgb(184, 84, 80); font-family: Helvetica; font-size: 14px; font-style: normal; font-variant-ligatures: normal; font-variant-caps: normal; font-weight: 700; letter-spacing: normal; orphans: 2; text-align: center; text-indent: 0px; text-transform: none; widows: 2; word-spacing: 0px; -webkit-text-stroke-width: 0px; white-space: normal; background-color: rgb(251, 251, 251); text-decoration-thickness: initial; text-decoration-style: initial; text-decoration-color: initial; display: inline !important; float: none;&quot;&gt;DCS1_A_n&lt;/span&gt;" style="text;whiteSpace=wrap;html=1;textOpacity=50;" vertex="1" parent="1">
          <mxGeometry x="1346.5" y="1370" width="80" height="20" as="geometry" />
        </mxCell>
        <mxCell id="TG-YVFUVCGgv4PHO8d8e-405" value="&lt;span style=&quot;font-family: Helvetica; font-size: 14px; font-style: normal; font-variant-ligatures: normal; font-variant-caps: normal; font-weight: 700; letter-spacing: normal; orphans: 2; text-align: center; text-indent: 0px; text-transform: none; widows: 2; word-spacing: 0px; -webkit-text-stroke-width: 0px; white-space: normal; background-color: rgb(251, 251, 251); text-decoration-thickness: initial; text-decoration-style: initial; text-decoration-color: initial; float: none; display: inline !important;&quot;&gt;DCS0_B_n&lt;/span&gt;" style="text;whiteSpace=wrap;html=1;fontColor=#82b366;textOpacity=50;" vertex="1" parent="1">
          <mxGeometry x="1369.5" y="1400" width="80" height="30" as="geometry" />
        </mxCell>
        <mxCell id="TG-YVFUVCGgv4PHO8d8e-406" value="" style="endArrow=classic;html=1;rounded=0;strokeWidth=4;fillColor=#ffe6cc;strokeColor=#0aa7f5;" edge="1" parent="1">
          <mxGeometry width="50" height="50" relative="1" as="geometry">
            <mxPoint x="1275.5" y="1430" as="sourcePoint" />
            <mxPoint x="1305.5" y="1210" as="targetPoint" />
            <Array as="points">
              <mxPoint x="1275.5" y="1410" />
              <mxPoint x="1305.5" y="1410" />
              <mxPoint x="1305.5" y="1320" />
            </Array>
          </mxGeometry>
        </mxCell>
        <mxCell id="TG-YVFUVCGgv4PHO8d8e-407" value="" style="endArrow=classic;html=1;rounded=0;strokeWidth=4;fillColor=#fff2cc;strokeColor=#082fa6;" edge="1" parent="1">
          <mxGeometry width="50" height="50" relative="1" as="geometry">
            <mxPoint x="1345.5" y="1430" as="sourcePoint" />
            <mxPoint x="1321.5" y="1210" as="targetPoint" />
            <Array as="points">
              <mxPoint x="1345.5" y="1410" />
              <mxPoint x="1321.5" y="1410" />
              <mxPoint x="1321.5" y="1320" />
            </Array>
          </mxGeometry>
        </mxCell>
        <mxCell id="TG-YVFUVCGgv4PHO8d8e-408" value="&lt;span style=&quot;font-size: 14px; font-weight: 700; text-align: center;&quot;&gt;&lt;font&gt;DCA[6:0]_A&lt;/font&gt;&lt;/span&gt;" style="text;whiteSpace=wrap;html=1;fontColor=#0aa7f5;fontSize=12;" vertex="1" parent="1">
          <mxGeometry x="1235.5" y="1430" width="80" height="30" as="geometry" />
        </mxCell>
        <mxCell id="TG-YVFUVCGgv4PHO8d8e-409" value="&lt;span style=&quot;font-size: 14px; font-weight: 700; text-align: center;&quot;&gt;DCA[6:0]_B&lt;/span&gt;" style="text;whiteSpace=wrap;html=1;fontColor=#0a2ea6;fontSize=12;fontFamily=Helvetica;" vertex="1" parent="1">
          <mxGeometry x="1315.5" y="1430" width="80" height="30" as="geometry" />
        </mxCell>
        <mxCell id="TG-YVFUVCGgv4PHO8d8e-410" style="edgeStyle=orthogonalEdgeStyle;rounded=0;orthogonalLoop=1;jettySize=auto;html=1;fillColor=#1ba1e2;strokeColor=light-dark(#0aa7f5, #51afe7);strokeWidth=3;" edge="1" parent="1">
          <mxGeometry relative="1" as="geometry">
            <mxPoint x="1163.5" y="1130" as="targetPoint" />
            <mxPoint x="1260.5" y="1130" as="sourcePoint" />
          </mxGeometry>
        </mxCell>
        <mxCell id="TG-YVFUVCGgv4PHO8d8e-411" style="edgeStyle=orthogonalEdgeStyle;rounded=0;orthogonalLoop=1;jettySize=auto;html=1;fillColor=#1ba1e2;strokeColor=light-dark(#0aa7f5, #51afe7);strokeWidth=3;" edge="1" parent="1">
          <mxGeometry relative="1" as="geometry">
            <mxPoint x="1163.5" y="1160" as="targetPoint" />
            <mxPoint x="1260.5" y="1160" as="sourcePoint" />
          </mxGeometry>
        </mxCell>
        <mxCell id="TG-YVFUVCGgv4PHO8d8e-412" style="edgeStyle=orthogonalEdgeStyle;rounded=0;orthogonalLoop=1;jettySize=auto;html=1;fillColor=#1ba1e2;strokeColor=light-dark(#0aa7f5, #51afe7);strokeWidth=3;" edge="1" parent="1">
          <mxGeometry relative="1" as="geometry">
            <mxPoint x="1163" y="1190" as="targetPoint" />
            <mxPoint x="1239" y="1160" as="sourcePoint" />
            <Array as="points">
              <mxPoint x="1229" y="1160" />
              <mxPoint x="1229" y="1190" />
            </Array>
          </mxGeometry>
        </mxCell>
        <mxCell id="TG-YVFUVCGgv4PHO8d8e-413" value="QBCA[13:0]_A" style="text;html=1;align=center;verticalAlign=middle;whiteSpace=wrap;rounded=0;fontColor=light-dark(#0aa7f5, #7e3f03);fontStyle=1;fontSize=14;" vertex="1" parent="1">
          <mxGeometry x="1062.5" y="1106" width="92" height="20" as="geometry" />
        </mxCell>
        <mxCell id="TG-YVFUVCGgv4PHO8d8e-416" value="QACA[13:0]_A" style="text;html=1;align=center;verticalAlign=middle;whiteSpace=wrap;rounded=0;fontColor=light-dark(#0aa7f5, #7e3f03);fontStyle=1;fontSize=14;" vertex="1" parent="1">
          <mxGeometry x="1062.5" y="1164" width="92" height="20" as="geometry" />
        </mxCell>
        <mxCell id="TG-YVFUVCGgv4PHO8d8e-417" style="edgeStyle=orthogonalEdgeStyle;rounded=0;orthogonalLoop=1;jettySize=auto;html=1;fillColor=#0050ef;strokeColor=#001DBC;strokeWidth=3;endArrow=none;startFill=1;startArrow=classic;" edge="1" parent="1">
          <mxGeometry relative="1" as="geometry">
            <mxPoint x="1461.5" y="1100" as="targetPoint" />
            <mxPoint x="1558.5" y="1100" as="sourcePoint" />
          </mxGeometry>
        </mxCell>
        <mxCell id="TG-YVFUVCGgv4PHO8d8e-418" style="edgeStyle=orthogonalEdgeStyle;rounded=0;orthogonalLoop=1;jettySize=auto;html=1;fillColor=#0050ef;strokeColor=#001DBC;strokeWidth=3;endArrow=none;startFill=1;startArrow=classic;" edge="1" parent="1">
          <mxGeometry relative="1" as="geometry">
            <mxPoint x="1489" y="1100" as="targetPoint" />
            <mxPoint x="1558.5" y="1130" as="sourcePoint" />
          </mxGeometry>
        </mxCell>
        <mxCell id="TG-YVFUVCGgv4PHO8d8e-419" style="edgeStyle=orthogonalEdgeStyle;rounded=0;orthogonalLoop=1;jettySize=auto;html=1;fillColor=#0050ef;strokeColor=#001DBC;strokeWidth=3;endArrow=none;startFill=1;startArrow=classic;" edge="1" parent="1">
          <mxGeometry relative="1" as="geometry">
            <mxPoint x="1461.5" y="1160" as="targetPoint" />
            <mxPoint x="1558.5" y="1160" as="sourcePoint" />
          </mxGeometry>
        </mxCell>
        <mxCell id="TG-YVFUVCGgv4PHO8d8e-420" style="edgeStyle=orthogonalEdgeStyle;rounded=0;orthogonalLoop=1;jettySize=auto;html=1;fillColor=#0050ef;strokeColor=#001DBC;strokeWidth=3;endArrow=none;startFill=1;startArrow=classic;" edge="1" parent="1">
          <mxGeometry relative="1" as="geometry">
            <mxPoint x="1489" y="1160" as="targetPoint" />
            <mxPoint x="1558" y="1190" as="sourcePoint" />
          </mxGeometry>
        </mxCell>
        <mxCell id="TG-YVFUVCGgv4PHO8d8e-422" value="QBCA[13:0]_B" style="text;html=1;align=center;verticalAlign=middle;whiteSpace=wrap;rounded=0;fontColor=light-dark(#082fa6, #295a0d);fontStyle=1;fontSize=14;" vertex="1" parent="1">
          <mxGeometry x="1573" y="1104" width="92" height="20" as="geometry" />
        </mxCell>
        <mxCell id="TG-YVFUVCGgv4PHO8d8e-423" value="QACA[13:0]_B" style="text;html=1;align=center;verticalAlign=middle;whiteSpace=wrap;rounded=0;fontColor=light-dark(#082fa6, #295a0d);fontStyle=1;fontSize=14;" vertex="1" parent="1">
          <mxGeometry x="1575" y="1164" width="92" height="20" as="geometry" />
        </mxCell>
        <mxCell id="TG-YVFUVCGgv4PHO8d8e-425" value="&lt;div&gt;&lt;span style=&quot;background-color: initial;&quot;&gt;DCS1_B_n&lt;/span&gt;&lt;br&gt;&lt;/div&gt;" style="text;html=1;align=center;verticalAlign=middle;whiteSpace=wrap;rounded=0;fontColor=#9673a6;fontStyle=1;fontSize=14;textOpacity=50;" vertex="1" parent="1">
          <mxGeometry x="1403.5" y="1440" width="90" height="20" as="geometry" />
        </mxCell>
      </root>
    </mxGraphModel>
  </diagram>
</mxfile>
